<svg xmlns="http://www.w3.org/2000/svg" version="1.1" xmlns:xlink="http://www.w3.org/1999/xlink" xmlns:svgjs="http://svgjs.dev/svgjs" viewBox="0 0 800 800"><defs><linearGradient x1="50%" y1="0%" x2="50%" y2="100%" id="ccchaos-grad"><stop stop-color="hsl(206, 75%, 49%)" stop-opacity="1" offset="0%"></stop><stop stop-color="hsl(331, 90%, 56%)" stop-opacity="1" offset="100%"></stop></linearGradient></defs><g stroke-width="2" stroke="url(#ccchaos-grad)" fill="none" stroke-linecap="round"><path d="M378.84 67.63Q386.7 70.97 394.73 74.33 402.93 77.76 411.33 81.31 419.92 85 428.72 88.87 437.75 92.96 447 97.3 456.49 101.91 466.21 106.81 476.17 112.01 486.36 117.52 496.78 123.35 507.42 129.48 518.28 135.9 529.34 142.59 540.59 149.53 552.01 156.68 563.59 164 575.3 171.46 587.13 179.01 599.05 186.59 611.04 194.15 623.07 201.65 635.11 209.04 647.14 216.25 659.13 223.25 671.04 229.98 682.86 236.42 694.54 242.52 706.08 248.27 717.43 253.63 720.72 264.33 722.87 275.04 723.82 285.75 723.54 296.45 722.02 307.16 719.33 317.86 715.55 328.57 710.8 339.28 705.24 349.98 699.06 360.69 692.44 371.4 685.62 382.1 678.8 392.81 672.23 403.52 666.1 414.22 660.62 424.93 655.97 435.63 652.31 446.34 649.74 457.05 648.36 467.75 648.21 478.46 649.3 489.17 651.58 499.87 654.99 510.58 659.42 521.29 664.71 531.99 670.7 542.7 677.19 553.41 683.97 564.11 690.81 574.82 697.52 593.55 691.06 606.26 677.16 613.39 662.42 618.71 646.23 621.52 629.18 623.24 620.15 623.68 610.85 624.02 601.29 624.37 591.48 624.83 581.43 625.5 571.17 626.47 560.7 627.84 550.06 629.69 539.26 632.09 528.32 635.12 517.27 638.81 506.12 643.21 494.9 648.35 483.64 654.23 472.36 660.84 461.08 668.16 449.82 676.16 438.6 684.77 427.45 693.95 416.37 703.6 405.4 713.64 394.54 723.97 380.71 724.27 366.65 724.13 352.07 722.25 337.1 718.81 329.36 716.01 321.48 712.52 313.43 708.32 305.22 703.38 296.86 697.71 288.33 691.33 279.65 684.28 270.82 676.59 261.85 668.34 252.73 659.59 243.49 650.42 234.14 640.91 224.67 631.17 215.12 621.29 205.48 611.37 195.77 601.51 186.01 591.81 176.22 582.35 166.39 573.23 156.55 564.53 146.72 556.3 136.9 548.62 127.1 541.52 117.35 535.04 116.16 525.09 114.9 515.14 113.61 505.19 112.34 495.25 111.12 485.3 109.99 475.35 108.99 465.4 108.16 455.46 107.52 445.51 107.09 435.56 106.88 425.62 106.91 415.67 107.17 405.72 107.65 395.77 108.34 385.83 109.22 375.88 110.25 365.93 111.4 355.99 112.64 346.04 113.92 336.09 115.21 326.14 116.45 316.2 117.62 306.25 118.66 296.3 119.56 286.36 120.27 276.41 120.78 266.46 121.06 256.52 121.11 246.57 120.94 236.62 124.68 219.66 137.66 208.9 146.38 205.45 154.98 202.25 163.47 199.26 171.85 196.42 188.21 191.01 204.25 185.6 219.83 179.68 235.18 173.18 250.28 165.4 265.32 156.72 272.83 151.82 280.38 146.6 287.96 141.08 295.61 135.26 303.33 129.16 311.15 122.83 319.08 116.27 327.13 109.54 335.32 102.67 343.67 95.7 352.18 88.67 360.88 81.62 374.3 71.11 378.84 67.63" stroke-dasharray="2 2" transform="rotate(0, 400, 400)" opacity="1.00"></path><path d="M377.67 80.25Q385.64 83.39 393.79 86.57 402.11 89.8 410.63 93.14 419.34 96.61 428.26 100.26 437.39 104.11 446.72 108.18 456.27 112.51 466.02 117.11 475.98 122 486.14 127.18 496.49 132.66 507.02 138.43 517.73 144.49 528.59 150.82 539.6 157.39 550.74 164.19 561.99 171.18 573.32 178.32 584.73 185.58 596.18 192.91 607.66 200.27 619.14 207.6 630.59 214.87 642 222.02 653.33 229.01 664.57 235.8 675.68 242.34 686.65 248.59 697.45 254.54 708.06 260.15 710.54 270.44 711.95 280.73 712.24 291.03 711.41 301.32 709.48 311.61 706.5 321.91 702.57 332.2 697.81 342.49 692.36 352.79 686.38 363.08 680.06 373.37 673.58 383.67 667.15 393.96 660.96 404.25 655.19 414.55 650.02 424.84 645.6 435.13 642.07 445.43 639.54 455.72 638.08 466.01 637.74 476.31 638.52 486.6 640.4 496.89 643.33 507.19 647.22 517.48 651.95 527.78 657.37 538.07 663.33 548.36 669.64 558.66 676.11 568.95 682.74 586.58 676.88 597.71 664.03 603.34 650.47 607.44 635.65 609.55 620.04 610.88 603.14 611.71 585.49 612.78 576.25 613.67 566.79 614.88 557.13 616.51 547.27 618.62 537.24 621.26 527.05 624.49 516.73 628.36 506.28 632.87 495.73 638.07 485.1 643.94 474.41 650.47 463.68 657.65 452.93 665.43 442.17 673.76 431.43 682.6 420.73 691.86 410.08 701.47 399.5 711.35 386.02 711.51 372.24 711.3 357.82 709.57 342.99 706.45 327.4 700.48 311.34 692.57 303.05 687.45 294.61 681.68 286.02 675.27 277.3 668.27 268.46 660.71 259.49 652.65 250.41 644.16 241.24 635.3 231.97 626.17 222.64 616.83 213.23 607.39 203.78 597.92 194.29 588.51 184.78 579.25 175.25 570.21 165.72 561.48 156.21 553.12 146.72 545.19 137.26 537.75 127.85 530.83 126.56 521.24 125.23 511.65 123.89 502.07 122.58 492.48 121.35 482.89 120.22 473.3 119.24 463.72 118.44 454.13 117.83 444.54 117.44 434.95 117.28 425.36 117.35 415.78 117.65 406.19 118.18 396.6 118.91 387.01 119.82 377.43 120.89 367.84 122.09 358.25 123.37 348.66 124.7 339.08 126.04 329.49 127.35 319.9 128.59 310.31 129.72 300.73 130.7 291.14 131.52 281.55 132.13 271.96 132.53 262.38 132.71 252.79 132.65 243.2 136.42 227.07 149.04 217.28 165.78 211.55 182.2 206.25 198.07 201.21 213.62 196.03 228.69 190.19 243.49 183.72 257.97 175.95 272.33 167.29 279.47 162.43 286.6 157.27 293.75 151.82 300.93 146.09 308.15 140.12 315.43 133.92 322.79 127.52 330.25 120.96 337.8 114.28 345.48 107.5 353.3 100.67 361.26 93.83 373.52 83.63 377.67 80.25" stroke-dasharray="3 3" transform="rotate(4.04, 400, 400)" opacity="0.96"></path><path d="M377.6 92.87Q385.68 95.83 393.93 98.81 402.35 101.85 410.96 104.99 419.75 108.25 428.73 111.67 437.89 115.28 447.24 119.1 456.77 123.15 466.48 127.46 476.36 132.04 486.41 136.89 496.6 142.02 506.95 147.43 517.42 153.12 528 159.08 538.69 165.28 549.47 171.71 560.31 178.34 571.2 185.15 582.11 192.09 593.04 199.13 603.96 206.24 614.84 213.36 625.67 220.47 636.43 227.5 647.08 234.43 657.63 241.21 668.03 247.79 678.27 254.15 688.34 260.25 698.21 266.07 699.94 275.94 700.66 285.81 700.36 295.67 699.05 305.54 696.76 315.41 693.56 325.28 689.53 335.15 684.8 345.02 679.48 354.89 673.73 364.76 667.71 374.63 661.58 384.5 655.53 394.37 649.71 404.24 644.28 414.11 639.41 423.98 635.22 433.85 631.84 443.72 629.35 453.59 627.82 463.45 627.31 473.32 627.81 483.19 629.33 493.06 631.81 502.93 635.18 512.8 639.36 522.67 644.23 532.54 649.65 542.41 655.47 552.28 661.52 562.15 662.33 584.81 650.74 592.95 638.03 595.7 624.67 597.55 610.16 598.55 594.95 599.49 578.59 601.09 561.57 603.53 552.7 605.41 543.63 607.76 534.38 610.62 524.96 614.04 515.39 618.04 505.67 622.65 495.84 627.87 485.89 633.71 475.86 640.14 465.75 647.15 455.58 654.7 445.37 662.75 435.14 671.25 424.91 680.12 414.68 689.31 404.48 698.73 391.21 698.77 377.56 698.49 363.24 696.88 348.47 694.06 332.97 688.71 317.03 681.62 308.81 677.02 300.46 671.82 291.99 666.03 283.39 659.68 274.69 652.79 265.88 645.42 256.99 637.61 248.01 629.43 238.97 620.92 229.87 612.18 220.72 603.27 211.54 594.26 202.33 585.23 193.12 576.25 183.9 567.41 174.7 558.77 165.51 550.4 156.36 542.36 147.25 534.7 138.19 527.47 136.82 518.23 135.43 508.99 134.06 499.76 132.75 490.52 131.52 481.28 130.42 472.05 129.47 462.81 128.7 453.58 128.14 444.34 127.8 435.1 127.69 425.87 127.8 416.63 128.15 407.39 128.71 398.16 129.48 388.92 130.43 379.69 131.53 370.45 132.76 361.21 134.08 351.98 135.45 342.74 136.84 333.5 138.2 324.27 139.5 315.03 140.71 305.79 141.78 296.56 142.69 287.32 143.42 278.08 143.94 268.85 144.23 259.61 144.3 250.37 148.13 235.02 160.4 226.11 176.64 221.06 192.57 216.27 207.97 211.49 223.06 206.47 237.64 200.65 251.96 194.18 265.89 186.41 279.64 177.77 293.22 167.72 306.75 156.87 313.54 151.02 320.35 144.96 327.21 138.73 334.12 132.35 341.11 125.85 348.18 119.28 355.35 112.66 362.64 106.03 373.83 96.15 377.6 92.87" stroke-dasharray="8 7" transform="rotate(8.08, 400, 400)" opacity="0.92"></path><path d="M378.65 105.5Q386.8 108.27 395.11 111.07 403.59 113.93 412.24 116.87 421.04 119.93 430.02 123.13 439.15 126.5 448.44 130.07 457.87 133.85 467.46 137.87 477.18 142.14 487.02 146.66 496.98 151.45 507.05 156.51 517.2 161.83 527.43 167.41 537.72 173.23 548.06 179.28 558.43 185.54 568.82 191.98 579.19 198.58 589.55 205.3 599.86 212.12 610.12 218.99 620.3 225.88 630.38 232.74 640.35 239.55 650.18 246.26 659.87 252.83 669.4 259.24 678.75 265.43 687.9 271.39 688.92 280.82 689.02 290.26 688.2 299.7 686.48 309.13 683.9 318.57 680.52 328 676.45 337.44 671.77 346.87 666.61 356.31 661.11 365.74 655.39 375.18 649.62 384.62 643.93 394.05 638.47 403.49 633.39 412.92 628.81 422.36 624.84 431.79 621.6 441.23 619.16 450.66 617.59 460.1 616.92 469.53 617.18 478.97 618.35 488.4 620.41 497.84 623.3 507.27 626.96 516.71 631.28 526.14 636.15 535.58 641.46 545.01 647.06 554.45 647.9 575.14 637.12 581.84 625.39 583.91 613.11 585.35 599.85 586.35 585.97 587.49 571.06 589.5 555.53 592.41 547.42 594.53 539.12 597.09 530.64 600.15 521.99 603.73 513.18 607.84 504.22 612.51 495.12 617.74 485.89 623.52 476.56 629.84 467.12 636.67 457.6 643.98 448.01 651.73 438.36 659.88 428.68 668.36 418.97 677.12 409.25 686.1 396.05 686.03 382.46 685.68 368.17 684.19 353.45 681.63 338.03 676.84 322.22 670.51 314.09 666.4 305.85 661.74 297.5 656.54 289.05 650.81 280.51 644.58 271.89 637.88 263.2 630.75 254.45 623.23 245.64 615.39 236.8 607.26 227.92 598.93 219.03 590.44 210.13 581.86 201.23 573.27 192.34 564.72 183.47 556.28 174.63 548.02 165.82 539.99 157.07 532.24 148.36 524.82 146.94 515.93 145.52 507.04 144.14 498.15 142.83 489.26 141.63 480.37 140.56 471.48 139.66 462.59 138.95 453.7 138.44 444.81 138.15 435.92 138.09 427.03 138.25 418.14 138.64 409.25 139.24 400.36 140.04 391.47 141.02 382.58 142.15 373.68 143.4 364.79 144.75 355.9 146.15 347.01 147.58 338.12 148.99 329.23 150.34 320.34 151.61 311.45 152.77 302.56 153.77 293.67 154.6 284.78 155.24 275.89 155.67 267 155.87 258.11 159.77 243.48 171.71 235.34 187.45 230.83 202.9 226.43 217.85 221.83 232.5 216.89 246.65 211.06 260.51 204.56 273.96 196.78 287.19 188.18 300.15 178.25 313.02 167.59 319.42 161.87 325.82 155.97 332.24 149.91 338.69 143.71 345.17 137.41 351.71 131.05 358.31 124.64 365 118.23 375.21 108.67 378.65 105.5" stroke-dasharray="8 3" transform="rotate(12.12, 400, 400)" opacity="0.89"></path><path d="M380.75 118.12Q397.25 123.34 414.33 128.76 431.98 134.61 450.14 141.07 468.78 148.33 487.81 156.5 507.16 165.65 526.73 175.8 546.41 186.89 566.08 198.83 585.62 211.44 604.9 224.5 623.81 237.78 642.22 250.99 660.02 263.85 677.12 276.12 677.05 294.11 673.7 312.1 667.41 330.09 658.75 348.08 648.52 366.07 637.69 384.05 627.26 402.04 618.2 420.03 611.36 438.02 607.37 456.01 606.61 474 609.14 491.99 614.73 509.98 622.87 527.97 632.78 545.96 643.55 563.95 633.66 567.8 623.37 570.39 612.57 572.05 601.19 573.19 589.14 574.26 576.39 575.72 562.91 578.01 548.69 581.54 533.75 586.65 518.12 593.58 501.85 602.48 485.01 613.39 467.66 626.2 449.91 640.71 431.84 656.6 413.55 673.48 400.42 673.34 386.76 672.9 372.55 671.65 357.82 669.18 342.57 665.14 326.87 659.28 310.74 651.47 294.27 641.69 277.51 630.03 260.54 616.72 243.43 602.06 226.27 586.41 209.12 570.21 192.05 553.92 175.13 537.97 158.4 522.8 155.52 505.7 152.87 488.6 150.7 471.5 149.2 454.41 148.53 437.31 148.73 420.21 149.8 403.11 151.62 386.01 154.05 368.92 156.83 351.82 159.73 334.72 162.46 317.62 164.78 300.52 166.46 283.42 167.36 266.32 167.38 249.23 182.96 244.89 198.24 240.8 213.17 236.67 227.74 232.23 241.91 227.24 255.7 221.49 269.11 214.83 282.16 207.17 294.89 198.49 307.36 188.81 319.62 178.24 331.76 166.92 343.85 155.03 355.98 142.79 374.5 124.26 380.75 118.12" stroke-dasharray="2 10" transform="rotate(16.16, 400, 400)" opacity="0.85"></path><path d="M383.8 130.74Q400.21 135.61 417.1 140.67 434.44 146.11 452.19 152.12 470.27 158.84 488.62 166.39 507.15 174.86 525.77 184.26 544.39 194.58 562.89 205.72 581.18 217.57 599.14 229.95 616.69 242.65 633.71 255.44 650.14 268.07 665.89 280.3 664.76 297.39 660.76 314.49 654.23 331.59 645.73 348.69 635.97 365.79 625.8 382.89 616.06 399.98 607.6 417.08 601.12 434.18 597.18 451.28 596.11 468.38 598 485.47 602.7 502.57 609.79 519.67 618.69 536.77 628.64 553.86 619.24 556.75 609.56 558.69 599.5 560.03 588.98 561.14 577.93 562.41 566.28 564.22 554.02 566.95 541.11 570.93 527.55 576.41 513.36 583.59 498.55 592.55 483.18 603.31 467.28 615.75 450.94 629.69 434.21 644.84 417.18 660.86 404.02 660.62 390.34 660.13 376.16 658.95 361.5 656.71 346.41 653.11 330.93 647.92 315.11 641 299.02 632.3 282.72 621.87 266.29 609.87 249.77 596.51 233.26 582.11 216.8 566.99 200.46 551.55 184.28 536.17 168.3 521.23 165.43 504.82 162.86 488.4 160.81 471.98 159.46 455.56 158.91 439.14 159.22 422.73 160.36 406.31 162.23 389.89 164.67 373.47 167.48 357.05 170.42 340.64 173.24 324.22 175.69 307.8 177.58 291.38 178.73 274.96 179.06 258.54 194.1 254.7 208.88 250.92 223.34 246.93 237.47 242.52 251.24 237.49 264.63 231.67 277.66 224.96 290.32 217.3 302.65 208.69 314.68 199.16 326.45 188.83 338.03 177.83 349.48 166.32 360.87 154.5 378.04 136.66 383.8 130.74" stroke-dasharray="7 0" transform="rotate(20.200000000000003, 400, 400)" opacity="0.81"></path><path d="M387.65 143.36Q403.81 147.89 420.36 152.6 437.23 157.65 454.39 163.21 471.76 169.41 489.28 176.37 506.87 184.17 524.44 192.83 541.91 202.36 559.18 212.69 576.18 223.74 592.81 235.38 609 247.42 624.68 259.68 639.77 271.94 654.22 283.98 652.18 300.19 647.65 316.39 641 332.59 632.72 348.79 623.47 364.99 613.94 381.19 604.89 397.39 596.99 413.59 590.88 429.79 587 445.99 585.67 462.19 586.98 478.4 590.84 494.6 596.95 510.8 604.83 527 613.88 543.2 604.91 545.35 595.76 546.87 586.34 548.06 576.58 549.26 566.39 550.8 555.74 553.01 544.57 556.18 532.86 560.57 520.58 566.38 507.73 573.74 494.32 582.71 480.37 593.26 465.92 605.3 450.99 618.65 435.66 633.07 419.97 648.24 406.76 647.91 393.1 647.37 378.99 646.24 364.47 644.22 349.6 641.02 334.42 636.44 318.97 630.33 303.34 622.64 287.56 613.38 271.71 602.64 255.84 590.59 240.02 577.46 224.29 563.51 208.69 549.06 193.28 534.44 178.08 519.97 175.27 504.24 172.82 488.5 170.92 472.77 169.72 457.03 169.31 441.29 169.72 425.56 170.93 409.82 172.83 394.09 175.29 378.35 178.1 362.61 181.06 346.88 183.94 331.14 186.52 315.4 188.59 299.67 189.99 283.93 190.63 268.19 205.13 264.7 219.39 261.1 233.38 257.17 247.07 252.72 260.43 247.62 273.45 241.72 286.11 234.96 298.42 227.31 310.39 218.78 322.04 209.43 333.41 199.35 344.53 188.68 355.45 177.57 366.23 166.2 382.3 149.05 387.65 143.36" stroke-dasharray="8 3" transform="rotate(24.24, 400, 400)" opacity="0.77"></path><path d="M392.11 155.98Q407.86 160.19 423.89 164.55 440.14 169.23 456.56 174.35 473.08 180.05 489.65 186.43 506.18 193.57 522.62 201.51 538.88 210.25 554.89 219.77 570.58 230 585.89 240.83 600.75 252.15 615.11 263.77 628.91 275.54 642.13 287.26 639.33 302.56 634.41 317.86 627.73 333.17 619.74 348.47 611 363.77 602.13 379.07 593.73 394.38 586.39 409.68 580.63 424.98 576.84 440.28 575.29 455.58 576.09 470.89 579.18 486.19 584.34 501.49 590.98 525.27 582.04 535.03 573.17 536.23 564.06 537.63 554.64 539.5 544.86 542.11 534.67 545.7 524.03 550.47 512.91 556.54 501.31 564.03 489.21 572.94 476.61 583.26 463.54 594.87 450.02 607.62 436.08 621.29 421.76 635.62 408.56 635.21 394.96 634.62 380.99 633.55 366.7 631.71 352.12 628.87 337.32 624.84 322.33 619.49 307.22 612.73 292.03 604.56 276.83 595.04 261.66 584.27 246.57 572.42 231.59 559.69 216.78 546.35 202.16 532.64 187.76 518.85 185.05 503.8 182.75 488.76 181.03 473.71 180 458.66 179.73 443.61 180.25 428.56 181.51 413.51 183.44 398.47 185.89 383.42 188.69 368.37 191.66 353.32 194.57 338.27 197.24 323.22 199.47 308.17 201.12 293.12 202.05 278.07 216 274.79 229.74 271.26 243.25 267.31 256.5 262.79 269.45 257.58 282.09 251.6 294.39 244.8 306.37 237.18 318.01 228.76 329.33 219.6 340.35 209.81 351.1 199.49 361.6 188.8 371.9 177.87 387.08 161.43 392.11 155.98" stroke-dasharray="5 6" transform="rotate(28.28, 400, 400)" opacity="0.73"></path><path d="M396.96 168.6Q412.14 172.49 427.49 176.53 442.96 180.83 458.5 185.53 474.06 190.75 489.57 196.57 504.97 203.07 520.22 210.3 535.23 218.27 549.96 226.97 564.35 236.36 578.36 246.36 591.93 256.88 605.02 267.8 617.61 278.95 629.66 290.2 626.25 304.61 621.06 319.01 614.44 333.42 606.79 347.83 598.59 362.23 590.35 376.64 582.59 391.05 575.79 405.45 570.38 419.86 566.7 434.27 564.97 448.67 565.31 463.08 567.69 477.49 571.97 491.89 577.31 514.18 568.46 523.29 560.07 524.62 551.53 526.3 542.77 528.54 533.75 531.57 524.41 535.55 514.73 540.63 504.66 546.91 494.18 554.46 483.28 563.27 471.95 573.29 460.19 584.44 448.01 596.57 435.44 609.5 422.48 623 409.36 622.52 395.91 621.89 382.18 620.86 368.19 619.19 354.01 616.68 339.67 613.15 325.21 608.47 310.7 602.58 296.17 595.43 281.68 587.06 267.25 577.52 252.93 566.94 238.75 555.47 224.75 543.3 210.94 530.63 197.35 517.7 194.79 503.35 192.67 489 191.14 474.65 190.29 460.3 190.17 445.94 190.79 431.59 192.11 417.24 194.04 402.89 196.47 388.54 199.25 374.19 202.2 359.83 205.13 345.48 207.87 331.13 210.24 316.78 212.09 302.43 213.31 288.08 226.69 284.88 239.91 281.33 252.92 277.29 265.71 272.66 278.24 267.34 290.49 261.28 302.44 254.47 314.09 246.9 325.42 238.61 336.45 229.68 347.16 220.19 357.59 210.24 367.76 199.98 377.68 189.53 392.18 173.81 396.96 168.6" stroke-dasharray="9 1" transform="rotate(32.32, 400, 400)" opacity="0.70"></path><path d="M401.97 181.23Q416.42 184.82 430.94 188.53 445.51 192.48 460.06 196.78 474.55 201.52 488.93 206.8 503.15 212.69 517.16 219.22 530.92 226.44 544.37 234.33 557.49 242.87 570.22 252.02 582.55 261.7 594.44 271.83 605.87 282.28 616.84 292.92 612.95 306.44 607.62 319.96 601.14 333.48 593.87 346.99 586.22 360.51 578.6 374.03 571.46 387.54 565.19 401.06 560.13 414.58 556.57 428.1 554.7 441.61 554.64 455.13 556.39 468.65 559.84 482.17 563.92 503.07 555.08 511.76 538.99 515.64 522.51 521.37 513.92 525.69 505.07 531.04 495.92 537.46 486.44 545.01 476.63 553.65 466.45 563.35 455.91 574.01 445 585.51 433.72 597.69 422.09 610.37 409.15 609.83 395.96 609.17 382.56 608.18 368.99 606.66 355.29 604.43 341.5 601.35 327.67 597.29 313.83 592.18 300.03 585.98 286.29 578.68 272.65 570.33 259.14 560.99 245.79 550.77 232.62 539.82 219.64 528.29 206.87 516.37 204.5 502.72 202.6 489.08 201.28 475.44 200.61 461.79 200.64 448.15 201.35 434.51 202.71 420.87 204.64 407.23 207.04 393.58 209.78 379.94 212.69 366.3 215.61 352.66 218.39 339.02 220.87 325.37 222.91 311.73 224.4 298.09 237.19 294.88 249.86 291.24 262.36 287.08 274.67 282.31 286.76 276.88 298.61 270.77 310.2 263.96 321.51 256.47 332.54 248.35 343.27 239.67 353.72 230.5 363.88 220.96 373.76 211.14 383.39 201.17 397.37 186.19 401.97 181.23" stroke-dasharray="10 10" transform="rotate(36.36, 400, 400)" opacity="0.66"></path><path d="M406.87 193.85Q420.45 197.14 434.04 200.54 447.58 204.15 461.06 208.06 474.41 212.36 487.61 217.12 500.62 222.42 513.39 228.29 525.9 234.76 538.1 241.86 549.98 249.56 561.5 257.85 572.65 266.66 583.4 275.94 593.75 285.6 603.69 295.53 599.48 308.17 594.11 320.81 587.85 333.45 581 346.08 573.9 358.72 566.9 371.36 560.35 384 554.58 396.64 549.87 409.27 546.45 421.91 544.49 434.55 544.08 447.19 545.26 459.83 547.96 472.47 550.82 492.07 541.96 500.54 526.7 505.09 511.24 511.54 503.3 516.16 495.17 521.7 486.83 528.21 478.24 535.68 469.39 544.11 460.25 553.44 450.81 563.59 441.05 574.45 430.99 585.89 420.61 597.75 407.96 597.16 395.15 596.47 382.2 595.52 369.15 594.13 356.04 592.16 342.9 589.47 329.77 585.97 316.67 581.57 303.64 576.23 290.71 569.93 277.91 562.69 265.24 554.54 252.74 545.56 240.42 535.84 228.29 525.5 216.36 514.68 214.21 501.76 212.54 488.85 211.44 475.93 210.97 463.01 211.13 450.09 211.93 437.17 213.33 424.25 215.25 411.34 217.6 398.42 220.27 385.5 223.13 372.58 226.03 359.66 228.82 346.75 231.38 333.83 233.57 320.91 235.29 307.99 247.48 304.68 259.57 300.9 271.54 296.59 283.34 291.69 294.97 286.17 306.4 280.02 317.6 273.24 328.56 265.87 339.27 257.96 349.72 249.55 359.9 240.74 369.81 231.61 379.45 222.25 388.83 212.77 402.42 198.56 406.87 193.85" stroke-dasharray="10 2" transform="rotate(40.400000000000006, 400, 400)" opacity="0.62"></path><path d="M411.43 206.47Q424.03 209.48 436.58 212.58 449.03 215.86 461.37 219.4 473.55 223.27 485.55 227.54 497.33 232.27 508.88 237.5 520.17 243.27 531.16 249.59 541.85 256.47 552.22 263.89 562.25 271.82 571.94 280.21 581.28 289.01 590.27 298.15 585.87 309.92 580.56 321.69 574.57 333.46 568.17 345.23 561.63 357 555.23 368.77 549.26 380.55 543.98 392.32 539.6 404.09 536.34 415.86 534.31 427.63 533.63 439.4 534.3 451.17 536.31 462.94 538.03 481.34 529.15 489.73 514.62 494.96 500.06 502.08 492.67 506.93 485.17 512.6 477.53 519.12 469.71 526.47 461.7 534.64 453.47 543.56 445.01 553.17 436.3 563.38 427.33 574.07 418.1 585.13 405.89 584.49 393.57 583.79 381.19 582.87 368.77 581.6 356.34 579.85 343.94 577.52 331.57 574.51 319.28 570.75 307.09 566.19 295.01 560.8 283.07 554.59 271.28 547.57 259.65 539.78 248.2 531.28 236.92 522.16 225.83 512.51 223.94 500.34 222.52 488.16 221.65 475.98 221.35 463.8 221.65 451.62 222.53 439.44 223.95 427.27 225.85 415.09 228.15 402.91 230.74 390.73 233.52 378.56 236.37 366.38 239.15 354.2 241.75 342.02 244.06 329.85 245.97 317.67 257.54 314.2 269.04 310.26 280.44 305.79 291.72 300.77 302.85 295.18 313.82 289.03 324.6 282.33 335.19 275.12 345.55 267.44 355.69 259.35 365.59 250.92 375.25 242.22 384.66 233.34 393.83 224.37 407.09 210.93 411.43 206.47" stroke-dasharray="5 8" transform="rotate(44.44, 400, 400)" opacity="0.58"></path><path d="M415.43 219.09Q426.97 221.83 438.4 224.64 449.72 227.61 460.88 230.79 471.88 234.25 482.68 238.06 493.26 242.25 503.62 246.88 513.72 251.97 523.56 257.55 533.13 263.62 542.41 270.19 551.4 277.23 560.1 284.72 568.5 292.63 576.62 300.89 572.14 311.81 566.98 322.73 561.33 333.65 555.4 344.56 549.42 355.48 543.61 366.4 538.19 377.32 533.37 388.24 529.34 399.16 526.24 410.07 524.19 420.99 523.27 431.91 523.51 442.83 524.91 453.75 525.58 470.99 516.69 479.4 502.83 485.3 489.06 492.99 482.16 498.01 475.2 503.74 468.15 510.2 461 517.36 453.72 525.21 446.28 533.7 438.68 542.75 430.89 552.3 422.9 562.25 414.7 572.51 403.05 571.84 391.36 571.13 379.66 570.24 367.96 569.07 356.31 567.52 344.7 565.5 333.18 562.92 321.75 559.73 310.43 555.87 299.24 551.31 288.19 546.05 277.29 540.07 266.55 533.41 255.97 526.1 245.56 518.19 235.32 509.74 233.7 498.32 232.55 486.89 231.9 475.47 231.79 464.05 232.21 452.63 233.16 441.21 234.59 429.79 236.46 418.37 238.68 406.95 241.19 395.53 243.87 384.11 246.63 372.69 249.38 361.26 251.99 349.84 254.37 338.42 256.44 327 267.36 323.35 278.24 319.24 289.05 314.63 299.76 309.52 310.36 303.91 320.84 297.8 331.17 291.22 341.34 284.2 351.33 276.79 361.13 269.04 370.72 261.02 380.11 252.78 389.27 244.39 398.22 235.93 411.18 223.29 415.43 219.09" stroke-dasharray="8 8" transform="rotate(48.48, 400, 400)" opacity="0.54"></path><path d="M418.67 231.71Q429.08 234.18 439.38 236.72 449.53 239.38 459.52 242.23 469.34 245.31 478.97 248.67 488.4 252.36 497.61 256.42 506.59 260.87 515.34 265.74 523.86 271.04 532.12 276.78 540.15 282.95 547.93 289.54 556.9 305.24 553.41 324.04 548.13 334.12 542.69 344.2 537.26 354.28 532.02 364.37 527.14 374.45 522.77 384.53 519.07 394.61 516.14 404.69 514.1 414.77 513 424.85 512.88 434.93 513.75 445.02 513.48 461.15 504.61 469.62 491.39 476.13 478.34 484.28 471.86 489.39 465.37 495.11 458.84 501.44 452.26 508.36 445.6 515.84 438.85 523.85 431.99 532.33 424.99 541.21 417.86 550.42 410.58 559.89 399.61 559.2 388.66 558.48 377.73 557.63 366.86 556.55 356.05 555.18 345.31 553.42 334.68 551.23 324.15 548.54 313.74 545.3 303.47 541.49 293.33 537.08 283.33 532.06 273.49 526.45 263.79 520.26 254.25 513.51 244.86 506.25 243.53 495.6 242.63 484.95 242.21 474.31 242.27 463.66 242.8 453.01 243.81 442.36 245.24 431.72 247.06 421.07 249.2 410.42 251.6 399.78 254.17 389.13 256.84 378.48 259.51 367.84 262.09 357.19 264.51 346.54 266.69 335.9 276.94 332.06 287.17 327.79 297.35 323.07 307.47 317.91 317.5 312.32 327.45 306.3 337.28 299.88 346.98 293.11 356.55 286.01 365.96 278.64 375.21 271.04 384.28 263.28 393.17 255.41 401.86 247.48 414.52 235.64 418.67 231.71" stroke-dasharray="6 5" transform="rotate(52.52, 400, 400)" opacity="0.51"></path><path d="M420.98 244.33Q430.26 246.55 439.41 248.82 448.41 251.2 457.25 253.73 465.93 256.44 474.44 259.39 482.75 262.61 490.88 266.13 498.82 269.98 506.55 274.18 514.08 278.75 521.41 283.7 528.54 289.03 535.48 294.73 543.35 308.65 539.85 325.75 534.99 335.01 530.05 344.27 525.16 353.53 520.47 362.79 516.1 372.05 512.16 381.31 508.79 390.57 506.05 399.83 504.05 409.09 502.82 418.35 502.4 427.61 502.81 436.87 501.73 451.93 492.95 460.45 480.36 467.46 467.99 475.93 455.81 486.93 443.65 499.43 437.53 506.51 431.36 514.02 425.13 521.9 418.82 530.11 412.43 538.58 405.93 547.27 395.76 546.57 385.64 545.85 375.58 545.03 365.59 544.04 355.69 542.82 345.88 541.3 336.17 539.44 326.58 537.18 317.1 534.49 307.75 531.33 298.54 527.69 289.45 523.54 280.5 518.89 271.69 513.73 263.01 508.08 254.47 501.97 253.43 492.11 252.79 482.26 252.58 472.4 252.8 462.54 253.44 452.69 254.48 442.83 255.9 432.97 257.66 423.12 259.71 413.26 261.99 403.4 264.43 393.54 266.97 383.69 269.54 373.83 272.07 363.97 274.49 354.11 276.72 344.25 286.28 340.25 295.83 335.87 305.35 331.09 314.83 325.94 324.26 320.41 333.62 314.54 342.9 308.34 352.1 301.85 361.18 295.1 370.15 288.14 379 281 387.7 273.74 396.26 266.39 404.67 259.01 416.94 247.99 420.98 244.33" stroke-dasharray="10 3" transform="rotate(56.56, 400, 400)" opacity="0.47"></path><path d="M422.26 256.96Q438.43 260.96 454.06 265.28 469.09 270.22 483.49 276.02 497.24 282.9 510.34 290.99 522.81 300.37 534.68 311.05 526.33 327.95 517.48 344.86 508.96 361.76 501.56 378.67 495.97 395.57 492.71 412.48 492.09 429.38 494.16 446.29 481.72 451.92 469.72 459.09 458.06 467.92 446.62 478.44 435.3 490.58 423.98 504.19 412.58 518.98 400.98 534.64 382.5 533.23 364.32 531.53 346.51 529.14 329.12 525.68 312.18 520.87 295.71 514.52 279.71 506.51 264.18 496.84 263.04 478.74 263.39 460.64 265.18 442.53 268.27 424.43 272.35 406.33 277.05 388.22 281.93 370.12 286.53 352.01 304.21 343.44 321.85 333.58 339.37 322.51 356.68 310.43 373.7 297.55 390.35 284.15 406.55 270.52 422.26 256.96 422.26 256.96 422.26 256.96" stroke-dasharray="10 11" transform="rotate(60.599999999999994, 400, 400)" opacity="0.43"></path><path d="M422.43 269.58Q436.44 273.1 449.98 276.88 463 281.14 475.51 286.08 487.49 291.87 498.98 298.64 509.97 306.48 520.53 315.41 512.87 330.74 504.99 346.06 497.49 361.38 490.96 376.7 485.89 392.02 482.68 407.34 481.58 422.66 482.67 437.98 470.94 444.07 459.62 451.47 448.63 460.25 437.9 470.39 427.35 481.81 416.9 494.37 406.47 507.86 395.99 522.02 379.43 520.64 363.21 519.06 347.34 516.96 331.87 514.07 316.8 510.16 302.14 505.05 287.89 498.63 274.03 490.86 273.4 474.39 274.04 457.92 275.91 441.45 278.87 424.98 282.68 408.51 287.06 392.03 291.66 375.56 296.14 359.09 312.33 350.48 328.54 340.82 344.7 330.22 360.74 318.84 376.59 306.86 392.2 294.51 407.5 282.01 422.43 269.58 422.43 269.58 422.43 269.58" stroke-dasharray="1 9" transform="rotate(64.64, 400, 400)" opacity="0.39"></path><path d="M421.49 282.2Q433.48 285.27 445.06 288.54 456.23 292.17 467.01 296.32 477.39 301.13 487.39 306.69 497.04 313.1 506.37 320.41 499.49 334.17 492.57 347.93 486.06 361.7 480.35 375.46 475.81 389.22 472.72 402.99 471.27 416.75 471.56 430.51 460.61 436.88 450.02 444.33 439.75 452.89 429.74 462.5 419.93 473.1 410.28 484.56 400.72 496.72 391.2 509.4 376.63 508.07 362.39 506.59 348.47 504.76 334.91 502.35 321.69 499.2 308.81 495.15 296.27 490.11 284.04 484.01 283.87 469.19 284.76 454.37 286.67 439.55 289.48 424.73 293 409.92 297.02 395.1 301.29 380.28 305.54 365.46 320.21 356.97 334.92 347.67 349.63 337.67 364.3 327.09 378.86 316.09 393.29 304.83 407.51 293.47 421.49 282.2 421.49 282.2 421.49 282.2" stroke-dasharray="10 2" transform="rotate(68.68, 400, 400)" opacity="0.35"></path><path d="M419.49 294.82Q429.6 297.46 439.4 300.25 448.89 303.3 458.09 306.74 467.01 310.65 475.65 315.14 484.06 320.27 492.25 326.09 486.21 338.32 480.25 350.54 474.67 362.77 469.75 374.99 465.73 387.22 462.82 399.44 461.15 411.67 460.81 423.89 450.72 430.35 440.95 437.67 431.44 445.82 422.18 454.77 413.13 464.44 404.24 474.75 395.49 485.57 386.84 496.78 374.28 495.51 362.01 494.16 350.02 492.55 338.32 490.56 326.9 488.04 315.76 484.88 304.88 481.01 294.24 476.34 294.47 463.18 295.56 450.03 297.46 436.87 300.08 423.72 303.29 410.57 306.93 397.41 310.82 384.26 314.76 371.11 327.86 362.92 341.01 354.15 354.21 344.87 367.4 335.19 380.56 325.22 393.66 315.09 413.07 299.87 419.49 294.82" stroke-dasharray="7 6" transform="rotate(72.72, 400, 400)" opacity="0.32"></path><path d="M416.53 307.44Q433.02 312.11 448.86 317.33 463.77 324.23 478.21 332.5 473.03 343.2 468 353.9 463.32 364.61 459.15 375.31 455.65 386.01 452.97 396.71 451.2 407.42 450.4 418.12 441.27 424.46 432.39 431.42 423.73 439 415.28 447.15 407.02 455.82 398.92 464.93 390.97 474.4 383.13 484.16 372.55 482.98 362.2 481.74 352.08 480.35 342.18 478.7 332.5 476.71 323.03 474.28 309.48 463.88 306.43 444.92 308.28 433.44 310.68 421.96 313.56 410.48 316.79 399 320.25 387.52 323.82 376.04 335.3 368.35 346.86 360.26 358.47 351.83 370.11 343.15 381.76 334.28 393.4 325.32 410.76 311.89 416.53 307.44" stroke-dasharray="4 1" transform="rotate(76.76, 400, 400)" opacity="0.28"></path><path d="M412.75 320.06Q426.3 323.89 439.43 328.1 455.99 341.12 455.85 358.03 452 367.22 448.54 376.41 445.57 385.6 443.16 394.78 441.4 403.97 440.31 413.16 432.23 419.15 424.33 425.57 416.61 432.42 409.06 439.65 401.65 447.22 394.4 455.1 379.42 466.84 363.07 469.36 346.62 466.7 330.65 463.4 319.5 455.09 317.37 439.13 319.12 429.32 321.29 419.52 323.8 409.71 326.6 399.91 329.61 390.1 332.74 380.29 342.58 373.29 352.49 366.04 362.47 358.58 372.49 350.97 382.54 343.26 392.61 335.5 407.72 323.91 412.75 320.06" stroke-dasharray="0 6" transform="rotate(80.80000000000001, 400, 400)" opacity="0.24"></path><path d="M408.34 332.69Q419.28 335.7 429.92 339.02 440.31 342.89 450.51 347.52 443.79 362.88 437.94 378.24 433.4 393.6 430.53 408.95 416.77 420.07 403.52 432.23 390.73 445.26 378.36 458.91 364.69 457.01 351.47 454.9 338.65 452.32 326.2 448.99 328.41 432.72 331.89 416.46 336.38 400.19 341.54 383.91 357.97 371.51 374.62 358.67 391.43 345.64 408.34 332.69 408.34 332.69 408.34 332.69" stroke-dasharray="1 2" transform="rotate(84.84, 400, 400)" opacity="0.20"></path><path d="M403.51 345.31Q412.05 347.63 420.44 350.11 430.27 360.65 427.33 380.75 423.67 393.09 421 405.42 409.66 414.86 398.65 424.89 387.94 435.41 377.53 446.28 367.12 444.69 356.97 443 343.29 433.45 342.49 412.88 346.13 399.93 350.26 386.98 363.33 376.71 376.59 366.26 396.75 350.53 403.51 345.31" stroke-dasharray="3 5" transform="rotate(88.88, 400, 400)" opacity="0.16"></path><path d="M398.52 357.93Q415.52 367.99 416.73 383.87 413.96 393.17 411.72 402.47 402.97 409.88 394.41 417.59 378.2 428.97 363.08 431.11 353.31 424.14 353.1 408.89 355.85 399.23 358.91 389.58 368.65 381.69 378.5 373.75 393.49 361.87 398.52 357.93" stroke-dasharray="6 2" transform="rotate(92.92, 400, 400)" opacity="0.13"></path><path d="M393.59 370.55Q404.07 380.1 402.63 399.96 390.76 410.33 379.19 421.04 366.74 411.95 367.55 391.83 387.02 375.86 393.59 370.55" stroke-dasharray="5 2" transform="rotate(96.96, 400, 400)" opacity="0.09"></path></g></svg>