<svg xmlns="http://www.w3.org/2000/svg" version="1.1" xmlns:xlink="http://www.w3.org/1999/xlink" xmlns:svgjs="http://svgjs.dev/svgjs" viewBox="0 0 800 800"><defs><linearGradient x1="50%" y1="0%" x2="50%" y2="100%" id="ffflurry-grad" gradientTransform="rotate(270)"><stop stop-color="hsl(238, 82%, 13%)" stop-opacity="1" offset="0%"></stop><stop stop-color="hsl(1.4, 100%, 67%)" stop-opacity="1" offset="45%"></stop><stop stop-color="hsl(167, 52%, 78%)" stop-opacity="1" offset="100%"></stop></linearGradient></defs><rect width="100%" height="100%" fill="hsl(238, 82%, 13%)"></rect><g fill="url(#ffflurry-grad)"><rect width="407" height="3" x="-149.5" y="729.5" rx="1.5" transform="rotate(45, 54, 731)" opacity="0.59"></rect><rect width="124" height="3" x="126" y="334.5" rx="1.5" transform="rotate(45, 188, 336)" opacity="0.30"></rect><rect width="201" height="3" x="287.5" y="155.5" rx="1.5" transform="rotate(45, 388, 157)" opacity="0.26"></rect><rect width="283" height="3" x="-98.5" y="497.5" rx="1.5" transform="rotate(45, 43, 499)" opacity="0.42"></rect><rect width="487" height="3" x="258.5" y="159.5" rx="1.5" transform="rotate(45, 502, 161)" opacity="0.43"></rect><rect width="630" height="3" x="-268" y="64.5" rx="1.5" transform="rotate(45, 47, 66)" opacity="0.89"></rect><rect width="396" height="3" x="417" y="711.5" rx="1.5" transform="rotate(45, 615, 713)" opacity="0.55"></rect><rect width="168" height="3" x="172" y="387.5" rx="1.5" transform="rotate(45, 256, 389)" opacity="0.33"></rect><rect width="276" height="3" x="638" y="544.5" rx="1.5" transform="rotate(45, 776, 546)" opacity="0.74"></rect><rect width="42" height="3" x="491" y="612.5" rx="1.5" transform="rotate(45, 512, 614)" opacity="0.98"></rect><rect width="261" height="3" x="630.5" y="200.5" rx="1.5" transform="rotate(45, 761, 202)" opacity="0.13"></rect><rect width="367" height="3" x="495.5" y="362.5" rx="1.5" transform="rotate(45, 679, 364)" opacity="0.27"></rect><rect width="350" height="3" x="31" y="79.5" rx="1.5" transform="rotate(45, 206, 81)" opacity="0.51"></rect><rect width="67" height="3" x="98.5" y="248.5" rx="1.5" transform="rotate(45, 132, 250)" opacity="0.26"></rect><rect width="395" height="3" x="-70.5" y="488.5" rx="1.5" transform="rotate(45, 127, 490)" opacity="0.35"></rect><rect width="292" height="3" x="630" y="117.5" rx="1.5" transform="rotate(45, 776, 119)" opacity="0.65"></rect><rect width="271" height="3" x="557.5" y="755.5" rx="1.5" transform="rotate(45, 693, 757)" opacity="0.66"></rect><rect width="266" height="3" x="539" y="519.5" rx="1.5" transform="rotate(45, 672, 521)" opacity="0.93"></rect><rect width="191" height="3" x="558.5" y="282.5" rx="1.5" transform="rotate(45, 654, 284)" opacity="0.57"></rect><rect width="371" height="3" x="-142.5" y="394.5" rx="1.5" transform="rotate(45, 43, 396)" opacity="0.36"></rect><rect width="211" height="3" x="215.5" y="15.5" rx="1.5" transform="rotate(45, 321, 17)" opacity="0.77"></rect><rect width="476" height="3" x="363" y="539.5" rx="1.5" transform="rotate(45, 601, 541)" opacity="0.69"></rect><rect width="339" height="3" x="26.5" y="519.5" rx="1.5" transform="rotate(45, 196, 521)" opacity="0.10"></rect><rect width="230" height="3" x="323" y="534.5" rx="1.5" transform="rotate(45, 438, 536)" opacity="0.89"></rect><rect width="372" height="3" x="393" y="237.5" rx="1.5" transform="rotate(45, 579, 239)" opacity="0.57"></rect><rect width="344" height="3" x="257" y="675.5" rx="1.5" transform="rotate(45, 429, 677)" opacity="0.68"></rect><rect width="459" height="3" x="25.5" y="484.5" rx="1.5" transform="rotate(45, 255, 486)" opacity="0.82"></rect><rect width="122" height="3" x="-7" y="194.5" rx="1.5" transform="rotate(45, 54, 196)" opacity="0.44"></rect><rect width="253" height="3" x="461.5" y="464.5" rx="1.5" transform="rotate(45, 588, 466)" opacity="0.10"></rect><rect width="185" height="3" x="674.5" y="731.5" rx="1.5" transform="rotate(45, 767, 733)" opacity="0.25"></rect><rect width="352" height="3" x="363" y="63.5" rx="1.5" transform="rotate(45, 539, 65)" opacity="0.69"></rect><rect width="335" height="3" x="286.5" y="237.5" rx="1.5" transform="rotate(45, 454, 239)" opacity="0.21"></rect><rect width="34" height="3" x="190" y="273.5" rx="1.5" transform="rotate(45, 207, 275)" opacity="0.31"></rect><rect width="404" height="3" x="206" y="327.5" rx="1.5" transform="rotate(45, 408, 329)" opacity="0.58"></rect><rect width="260" height="3" x="585" y="111.5" rx="1.5" transform="rotate(45, 715, 113)" opacity="0.14"></rect><rect width="338" height="3" x="456" y="146.5" rx="1.5" transform="rotate(45, 625, 148)" opacity="0.40"></rect><rect width="80" height="3" x="316" y="661.5" rx="1.5" transform="rotate(45, 356, 663)" opacity="0.94"></rect><rect width="69" height="3" x="91.5" y="88.5" rx="1.5" transform="rotate(45, 126, 90)" opacity="0.74"></rect><rect width="198" height="3" x="-51" y="606.5" rx="1.5" transform="rotate(45, 48, 608)" opacity="0.52"></rect><rect width="331" height="3" x="18.5" y="170.5" rx="1.5" transform="rotate(45, 184, 172)" opacity="0.30"></rect><rect width="93" height="3" x="559.5" y="56.5" rx="1.5" transform="rotate(45, 606, 58)" opacity="0.79"></rect><rect width="604" height="3" x="442" y="641.5" rx="1.5" transform="rotate(45, 744, 643)" opacity="0.10"></rect><rect width="205" height="3" x="583.5" y="210.5" rx="1.5" transform="rotate(45, 686, 212)" opacity="0.86"></rect><rect width="211" height="3" x="278.5" y="27.5" rx="1.5" transform="rotate(45, 384, 29)" opacity="0.62"></rect><rect width="183" height="3" x="89.5" y="408.5" rx="1.5" transform="rotate(45, 181, 410)" opacity="0.91"></rect><rect width="540" height="3" x="282" y="754.5" rx="1.5" transform="rotate(45, 552, 756)" opacity="0.17"></rect><rect width="417" height="3" x="137.5" y="581.5" rx="1.5" transform="rotate(45, 346, 583)" opacity="0.65"></rect><rect width="178" height="3" x="281" y="224.5" rx="1.5" transform="rotate(45, 370, 226)" opacity="0.27"></rect><rect width="577" height="3" x="367.5" y="632.5" rx="1.5" transform="rotate(45, 656, 634)" opacity="0.86"></rect><rect width="488" height="3" x="31" y="235.5" rx="1.5" transform="rotate(45, 275, 237)" opacity="0.88"></rect><rect width="426" height="3" x="253" y="742.5" rx="1.5" transform="rotate(45, 466, 744)" opacity="0.11"></rect><rect width="44" height="3" x="166" y="17.5" rx="1.5" transform="rotate(45, 188, 19)" opacity="0.24"></rect><rect width="282" height="3" x="431" y="368.5" rx="1.5" transform="rotate(45, 572, 370)" opacity="0.75"></rect><rect width="66" height="3" x="279" y="753.5" rx="1.5" transform="rotate(45, 312, 755)" opacity="0.84"></rect><rect width="334" height="3" x="302" y="45.5" rx="1.5" transform="rotate(45, 469, 47)" opacity="0.24"></rect><rect width="283" height="3" x="128.5" y="159.5" rx="1.5" transform="rotate(45, 270, 161)" opacity="0.84"></rect><rect width="737" height="3" x="-200.5" y="737.5" rx="1.5" transform="rotate(45, 168, 739)" opacity="0.86"></rect><rect width="598" height="3" x="-56" y="652.5" rx="1.5" transform="rotate(45, 243, 654)" opacity="0.90"></rect><rect width="324" height="3" x="600" y="34.5" rx="1.5" transform="rotate(45, 762, 36)" opacity="0.18"></rect><rect width="493" height="3" x="-194.5" y="302.5" rx="1.5" transform="rotate(45, 52, 304)" opacity="0.90"></rect><rect width="428" height="3" x="191" y="90.5" rx="1.5" transform="rotate(45, 405, 92)" opacity="0.30"></rect><rect width="158" height="3" x="681" y="306.5" rx="1.5" transform="rotate(45, 760, 308)" opacity="0.52"></rect><rect width="83" height="3" x="223.5" y="37.5" rx="1.5" transform="rotate(45, 265, 39)" opacity="0.59"></rect><rect width="612" height="3" x="-163" y="603.5" rx="1.5" transform="rotate(45, 143, 605)" opacity="0.58"></rect><rect width="281" height="3" x="182.5" y="417.5" rx="1.5" transform="rotate(45, 323, 419)" opacity="0.45"></rect><rect width="352" height="3" x="548" y="548.5" rx="1.5" transform="rotate(45, 724, 550)" opacity="0.66"></rect><rect width="661" height="3" x="-12.5" y="316.5" rx="1.5" transform="rotate(45, 318, 318)" opacity="0.52"></rect><rect width="99" height="3" x="303.5" y="479.5" rx="1.5" transform="rotate(45, 353, 481)" opacity="0.39"></rect><rect width="63" height="3" x="83.5" y="398.5" rx="1.5" transform="rotate(45, 115, 400)" opacity="0.64"></rect><rect width="190" height="3" x="213" y="114.5" rx="1.5" transform="rotate(45, 308, 116)" opacity="0.37"></rect><rect width="87" height="3" x="465.5" y="296.5" rx="1.5" transform="rotate(45, 509, 298)" opacity="0.63"></rect><rect width="148" height="3" x="668" y="432.5" rx="1.5" transform="rotate(45, 742, 434)" opacity="0.74"></rect><rect width="495" height="3" x="214.5" y="423.5" rx="1.5" transform="rotate(45, 462, 425)" opacity="0.85"></rect><rect width="363" height="3" x="496.5" y="36.5" rx="1.5" transform="rotate(45, 678, 38)" opacity="0.36"></rect><rect width="67" height="3" x="541.5" y="590.5" rx="1.5" transform="rotate(45, 575, 592)" opacity="0.68"></rect><rect width="137" height="3" x="203.5" y="560.5" rx="1.5" transform="rotate(45, 272, 562)" opacity="0.78"></rect><rect width="147" height="3" x="244.5" y="64.5" rx="1.5" transform="rotate(45, 318, 66)" opacity="0.75"></rect></g></svg>