<?xml version="1.0" encoding="UTF-8" standalone="no"?>
<!-- Created with Inkscape (http://www.inkscape.org/) -->

<svg
        version="1.1"
        id="svg1"
        width="1078.6667"
        height="1706.6667"
        viewBox="0 0 1078.6667 1706.6667"
        sodipodi:docname="288a.svg"
        inkscape:version="1.3.2 (091e20ef0f, 2023-11-25)"
        xmlns:inkscape="http://www.inkscape.org/namespaces/inkscape"
        xmlns:sodipodi="http://sodipodi.sourceforge.net/DTD/sodipodi-0.dtd"
        xmlns="http://www.w3.org/2000/svg"
        xmlns:svg="http://www.w3.org/2000/svg" xmlns:xsi="http://www.w3.org/2001/XMLSchema-instance"
        xsi:schemaLocation="http://www.inkscape.org/namespaces/inkscape ">
  <defs
          id="defs1"/>
  <sodipodi:namedview
          id="namedview1"
          pagecolor="#ffffff"
          bordercolor="#000000"
          borderopacity="0.25"
          inkscape:showpageshadow="2"
          inkscape:pageopacity="0.0"
          inkscape:pagecheckerboard="0"
          inkscape:deskcolor="#d1d1d1"
          showgrid="false"
          inkscape:zoom="0.47167967"
          inkscape:cx="539.5611"
          inkscape:cy="853.33337"
          inkscape:window-width="1920"
          inkscape:window-height="1011"
          inkscape:window-x="0"
          inkscape:window-y="0"
          inkscape:window-maximized="1"
          inkscape:current-layer="layer1"/>
  <g
          inkscape:groupmode="layer"
          id="layer1"
          inkscape:label="Layer 1">
    <path
            style="fill:#000000"
            d="m 915.42109,1703.6667 c -0.34638,-1.65 -1.57203,-29.1 -2.72366,-61 -1.96435,-54.4122 -4.04163,-88.5269 -5.53792,-90.948 -1.09452,-1.771 -6.73572,-1.1691 -8.45462,0.9021 -1.79594,2.1639 -3.07871,10.9658 -9.43112,64.7126 -6.21166,52.5559 -8.19159,52.6808 -10.56763,0.6667 -1.35484,-29.659 -3.20746,-50.0269 -5.24244,-57.636 l -0.98081,-3.6674 -1.62277,4.6517 c -0.89252,2.5584 -3.11846,13.339 -4.94653,23.9568 -5.18585,30.1205 -6.78813,28.5988 -7.69176,-7.3051 -0.61104,-24.2786 -2.31845,-35.1342 -6.05837,-38.5188 -1.52357,-1.3788 -6.95698,-2.5922 -15.58456,-3.4803 -18.76144,-1.9312 -25.102,-4.3502 -33.55201,-12.8002 -6.98133,-6.9813 -7.0786,-7.0265 -8.89331,-4.1296 -1.00913,1.6109 -7.31439,11.8788 -14.0117,22.8177 -6.69731,10.9389 -15.60634,24.6519 -19.79786,30.4734 -32.30179,44.8632 -82.37811,68.3499 -133.20417,62.4751 -7.94923,-0.9188 -20.63819,-3.2159 -28.19771,-5.1047 l -13.74457,-3.4341 -11.58876,5.4753 c -6.37382,3.0115 -15.16483,6.3943 -19.53557,7.5174 -16.9869,4.3651 -35.99574,1.3808 -54.85696,-8.6122 -5.44653,-2.8857 -10.64382,-5.0032 -11.54952,-4.7057 -26.6539,8.7567 -44.93435,11.2728 -64.53672,8.8827 -7.2105,-0.8791 -17.91001,-2.8388 -23.77668,-4.3548 -13.69712,-3.5395 -37.56301,-15.065 -48.66667,-23.5026 -17.193,-13.0647 -37.23741,-38.0603 -55.39577,-69.0791 -5.83233,-9.963 -11.97272,-19.7206 -13.64531,-21.6837 l -3.04108,-3.5692 -2.29226,3.2783 c -8.60896,12.312 -15.15784,15.7091 -33.42079,17.3366 -7.07931,0.6309 -13.94365,1.5733 -15.25411,2.0943 -4.21142,1.6744 -6.03656,7.6788 -8.91278,29.3213 -1.54902,11.6559 -3.07445,21.4505 -3.38985,21.7659 -1.03102,1.031 -3.0812,-5.9007 -6.70092,-22.6561 -5.59858,-25.9154 -6.02196,-27.3417 -7.39019,-24.8968 -0.65534,1.171 -1.80597,6.4614 -2.55695,11.7565 -2.19789,15.4972 -3.33408,15.2113 -6.0698,-1.5272 -2.2384,-13.6956 -2.5639,-14.6308 -3.41318,-9.8061 -1.24571,7.0769 -3.55711,46.9346 -4.61995,79.6667 -0.68804,21.1892 -1.21731,26.3333 -2.70941,26.3333 -1.01988,0 -1.85433,-0.2207 -1.85433,-0.4904 0,-0.2697 -4.17031,-29.5197 -9.26737,-65 -10.84114,-75.4645 -9.0325,-70.5243 -25.80698,-70.4899 -20.4569,0.042 -21.77967,3.5734 -24.96342,66.647 -1.64358,32.5611 -2.27262,38.2229 -4.04926,36.4463 -1.46488,-1.4649 -2.32162,-7.8632 -9.30086,-69.4606 -5.5444,-48.9338 -7.927729,-60.1219 -13.435218,-63.0695 -2.184848,-1.1692 -3.288826,-0.6981 -6.553859,2.7971 -8.478287,9.0761 -10.925193,26.2213 -15.977542,111.9533 -4.154644,70.4991 -6.29073,98.2696 -7.760904,100.8966 -1.113304,1.9894 -1.435951,1.6341 -2.060486,-2.2689 -2.067251,-12.9192 -7.379747,-75.7146 -11.502305,-135.961 -1.530515,-22.3667 -4.281094,-61.6667 -6.112398,-87.3333 -1.831305,-25.6667 -3.681881,-52.0667 -4.112393,-58.6667 -0.430511,-6.6 -1.21636,-12.8198 -1.746331,-13.8217 -0.850414,-1.6078 -3.914809,18.9145 -5.946195,39.8217 -0.391887,4.0333 -1.323206,26.2333 -2.0696,49.3333 -1.497221,46.3373 -2.239557,55.6287 -4.281318,53.5869 -1.424263,-1.4242 -5.795275,-39.5311 -14.328836,-124.9202 -11.64590426,-116.532 -11.85672,-119.5679 -9.3677515,-134.9035 3.1251386,-19.2554 9.9565315,-33.9663 22.7174995,-48.9205 7.388105,-8.658 7.929821,-10.2224 15.210633,-43.9263 10.072698,-46.628 20.159703,-66.5847 40.484459,-80.0965 l 9.357465,-6.2209 2.769817,-11.7978 c 1.627656,-6.933 2.777944,-16.4033 2.789525,-22.9662 0.03976,-22.5331 5.333438,-35.3131 24.116868,-58.2233 13.45018,-16.40522 33.20113,-49.17457 50.79679,-84.27836 6.43267,-12.83333 13.55936,-26.71465 15.83709,-30.84737 3.74698,-6.79854 3.97095,-7.83739 2.3521,-10.90979 -0.98407,-1.86766 -6.58922,-6.82908 -12.45588,-11.02538 -52.63522,-37.64879 -73.57414,-68.76852 -76.178404,-113.21746 -1.334161,-22.77112 2.006824,-43.97896 14.913344,-94.66668 3.92128,-15.4 9.271,-38.5 11.88828,-51.33333 8.80423,-43.16989 11.14562,-49.86064 32.42393,-92.65442 26.29194,-52.87692 31.02258,-68.01533 35.62799,-114.01226 5.72252,-57.15427 18.87705,-103.4427 44.54618,-156.75002 C 282.80732,156.68343 347.93038,84.492853 432.6667,33.405168 487.013,0.63968104 522.86869,-6.6671133 569.9352,5.4321275 607.45337,15.076808 655.46013,40.181545 691.61994,69.066153 752.15466,117.42153 806.15295,192.82041 838.4646,274.10825 c 13.66248,34.3713 24.28628,71.97341 32.17808,113.89177 10.39141,55.19544 24.59809,95.92178 49.70032,142.47609 20.90157,38.76382 27.31814,58.93907 30.25927,95.14242 1.65116,20.3246 5.29437,32.65294 18.93389,64.07078 10.89954,25.10645 14.47016,37.67503 14.44809,50.85734 -0.0365,21.83288 -8.50135,37.7467 -34.98072,65.7637 -13.86498,14.67012 -17.4201,20.75369 -19.68756,33.68969 -2.37309,13.53863 -8.32486,24.05581 -21.58358,38.13962 -14.41808,15.31532 -14.55704,16.23472 -5.27263,34.88461 3.55282,7.13668 8.74841,18.67577 11.54575,25.64244 6.12202,15.24667 30.40397,54.64922 43.54856,70.66669 5.23899,6.384 11.97728,16.7133 15.42986,23.6529 l 6.12925,12.3196 1.00159,19.0138 c 1.45,27.5262 4.89121,35.5334 19.99103,46.516 19.4075,14.1159 25.8592,28.3544 37.92,83.6878 2.6202,12.0212 5.55,23.738 6.5107,26.0372 0.9607,2.2992 5.4494,8.3637 9.9749,13.4765 10.641,12.0222 19.3348,29.4045 22.3092,44.6053 2.9912,15.2864 1.8493,32.2698 -3.991,59.3576 -7.7792,36.0804 -12.5588,60.3403 -16.8157,85.3513 -6.456,37.9315 -7.3294,38.101 -8.4962,1.6487 -0.4753,-14.85 -1.353,-29.7 -1.9505,-33 l -1.0862,-6 -0.8719,10 c -0.4795,5.5 -1.1967,16 -1.5937,23.3333 -3.8532,71.1605 -11.8947,173.5798 -21.5394,274.3333 -0.9545,9.9709 -2.5028,11.6582 -3.6707,4 -0.7618,-4.9956 -1.1194,-10.9048 -6.112,-101 -4.6157,-83.2947 -6.7705,-107.0157 -10.6472,-117.2122 -1.39246,-3.6625 -6.25987,-7.4544 -9.56858,-7.4544 -3.93969,0 -16.97009,13.0554 -18.41479,18.4502 -0.71923,2.6857 -2.51782,25.4746 -3.99686,50.6421 -1.47905,25.1674 -3.04037,46.3272 -3.46962,47.0217 -1.92953,3.1221 -2.95934,-1.1613 -3.78568,-15.746 -3.00283,-52.9997 -4.22548,-61.9142 -8.82962,-64.3783 -6.85393,-3.6681 -20.51205,-0.1142 -24.81821,6.4579 -2.89168,4.4132 -3.77134,21.3591 -5.73225,110.4265 -0.77244,35.0859 -1.77119,67.8425 -2.21942,72.7925 -0.80943,8.9388 -2.58346,11.7473 -3.78998,6 z M 585.09553,1595.9084 c 11.12035,-5.5569 21.26602,-17.0693 29.29514,-33.2417 3.45876,-6.9666 6.9837,-14.6166 7.8332,-17 0.84949,-2.3833 2.19666,-4.3333 2.99369,-4.3333 2.324,0 1.69663,23.2371 -0.98095,36.3333 -1.31192,6.4167 -2.12803,11.6667 -1.81359,11.6667 2.14576,0 19.96571,-14.2861 28.2437,-22.6428 13.1382,-13.2631 25.07308,-30.9263 36.95378,-54.6905 l 9.66554,-19.3334 0.0199,6.6667 c 0.0965,32.3036 -11.59577,65.4835 -30.41711,86.3165 -2.52786,2.798 -4.36196,5.3096 -4.07578,5.5812 1.37938,1.3094 21.84928,-5.2132 32.52032,-10.3624 54.97578,-26.5281 90.94026,-89.6046 100.05538,-175.4829 5.49514,-51.7726 -1.35759,-117.9029 -16.8123,-162.2425 -8.87834,-25.472 -27.65647,-59.3669 -46.4315,-83.8099 l -6.14492,-8 -0.66666,15.3333 -0.66667,15.3334 -6.83298,-18 c -3.75813,-9.9 -8.15976,-22.0582 -9.78139,-27.0181 -4.05617,-12.4063 -12.82574,-21.9071 -26.4323,-28.6364 -9.08173,-4.4914 -11.40168,-5.0595 -22.3275,-5.4669 -9.88606,-0.3686 -12.60132,-0.046 -14.35262,1.7053 -2.73755,2.7375 -3.07598,1.9241 13.24649,31.8369 7.52922,13.7981 14.05785,26.2481 14.50808,27.6667 1.88242,5.931 -4.45618,1.7778 -22.61245,-14.816 -32.39366,-29.606 -46.99074,-39.2915 -64.26216,-42.6393 -18.63415,-3.612 -35.80879,5.458 -44.9731,23.7503 -7.00782,13.9879 -8.76662,31.9249 -8.81235,89.8721 -0.0199,25.2678 -0.55351,43.9088 -1.26947,44.3513 -1.48745,0.9193 -1.79907,-0.5754 -12.77418,-61.2726 -4.77359,-26.4 -9.62493,-51.2664 -10.78077,-55.2587 -5.38458,-18.5982 -15.17823,-32.0746 -23.3095,-32.0746 -5.90666,0 -11.27821,3.1876 -39.10053,23.2037 -22.64717,16.293 -30.13329,20.5076 -30.13329,16.9647 0,-1.3399 11.91443,-19.1212 22.03956,-32.8922 8.63879,-11.7495 10.02827,-14.3424 8.77366,-16.3725 -2.89319,-4.6812 -28.00551,-5.8117 -39.65571,-1.7851 -17.65966,6.1036 -35.25497,21.3752 -54.35077,47.1731 -46.39395,62.6768 -67.47342,125.248 -67.47342,200.2846 0,41.3394 5.48363,75.7977 17.91074,112.5485 4.73458,14.0015 19.10781,45.5418 20.75389,45.5418 0.49526,0 -0.18611,-4.35 -1.51415,-9.6666 -6.59422,-26.3993 -11.31894,-72.8046 -8.22315,-80.7663 0.9891,-2.5438 2.23846,0.6842 6.96666,18 7.93983,29.0774 13.58762,44.9454 22.90697,64.3592 8.98366,18.7144 18.97702,34.3379 29.39497,45.9558 6.70487,7.4771 26.48722,25.2126 27.2602,24.4396 0.19926,-0.1993 -1.62883,-6.3531 -4.06242,-13.6753 -5.95896,-17.9293 -9.02258,-36.2012 -9.22535,-55.0216 -0.13618,-12.6387 0.19107,-15.6248 1.7123,-15.6248 1.0613,0 5.4598,7.015 10.0958,16.1013 10.76275,21.0943 16.56112,30.6456 27.57144,45.4167 18.37056,24.6453 38.23541,39.1839 54.94463,40.2125 9.93359,0.6115 15.17277,-2.3271 21.84101,-12.2503 4.47939,-6.6658 12.33315,-29.3342 12.33315,-35.5972 0,-5.063 -2.2136,-6.328 -13.92375,-7.9567 -13.94937,-1.9402 -26.87046,-5.3516 -42.80063,-11.3001 -19.48813,-7.2772 -28.41751,-12.0658 -29.33801,-15.7333 -0.4269,-1.7009 0.75981,-8.5556 2.63712,-15.2326 1.87732,-6.677 3.05981,-13.0612 2.62775,-14.1871 -0.92776,-2.4177 -37.93262,-22.1542 -41.45178,-22.1083 -1.56097,0.02 -5.37189,4.5078 -10.75711,12.6667 -5.71487,8.6583 -9.14362,12.6351 -10.89387,12.6351 -3.27513,0 -16.53832,-14.6046 -26.7421,-29.4467 -22.08875,-32.1296 -37.01965,-72.2038 -43.31379,-116.2531 -2.6017,-18.208 -3.35334,-41.1408 -1.37117,-41.8351 0.73664,-0.258 2.77759,3.24 4.53545,7.7734 4.58972,11.8366 19.00033,40.6929 25.63561,51.3336 12.86165,20.6259 31.57922,43.0946 35.89993,43.0946 1.46751,0 5.50941,-3.8017 9.923,-9.3334 4.09581,-5.1333 8.2012,-9.3333 9.12311,-9.3333 0.92191,0 11.54636,4.9846 23.60988,11.0769 12.06353,6.0922 27.4558,13.0318 34.20506,15.4212 8.2845,2.9329 12.52526,5.1443 13.05282,6.8065 0.4298,1.3541 -0.74232,8.4733 -2.60471,15.8204 -4.24945,16.7639 -4.31752,20.8873 -0.38615,23.3899 3.279,2.0872 27.01333,9.0861 39.6958,11.7056 5.98642,1.2365 8.35073,1.2663 9.49727,0.1198 0.83961,-0.8396 2.9184,-9.767 4.61954,-19.8386 1.70113,-10.0716 3.92398,-19.1431 4.93967,-20.1587 1.55638,-1.5564 4.95457,-1.5886 21.61563,-0.2047 15.89116,1.3199 24.44873,1.3025 43.62661,-0.089 16.86424,-1.2234 24.27361,-1.3148 25.27658,-0.3118 0.78039,0.7804 3.40045,9.6404 5.82234,19.689 2.4219,10.0485 5.02788,18.8945 5.79107,19.6577 1.85342,1.8534 9.97647,-0.092 29.81592,-7.141 9.58862,-3.4068 16.2041,-6.5194 16.99432,-7.9959 0.91801,-1.7154 0.19571,-7.1912 -2.48634,-18.8493 -2.07913,-9.0374 -3.52079,-17.4274 -3.20368,-18.6444 0.3369,-1.2929 9.08749,-6.3845 21.05121,-12.2488 11.26106,-5.5199 23.65527,-12.0606 27.5427,-14.535 12.09175,-7.6966 11.93082,-7.7324 21.45822,4.7751 2.04793,2.6885 4.54114,4.8881 5.54046,4.8881 1.99498,0 11.51237,-12.4208 21.45484,-28 8.51753,-13.3464 21.79575,-40.7976 26.65126,-55.0984 5.77969,-17.0228 7.2966,-15.4706 7.2966,7.4667 0,40.0798 -8.77381,79.573 -25.18114,113.3466 -10.52876,21.6729 -25.82339,42.9612 -30.21388,42.054 -1.15952,-0.2395 -5.51998,-5.5355 -9.68993,-11.7689 -4.16995,-6.2333 -8.63644,-11.5282 -9.92554,-11.7664 -1.33054,-0.2459 -6.80657,3.1236 -12.66667,7.794 -5.67756,4.525 -13.14703,10.4199 -16.5988,13.0998 -3.45178,2.68 -7.25496,6.8754 -8.45153,9.3232 -2.00054,4.0925 -2.00516,5.2052 -0.0574,13.8302 2.73957,12.1312 2.67119,16.1388 -0.32159,18.8472 -5.94654,5.3816 -40.66061,18.1958 -62.02645,22.8963 -14.13648,3.11 -14.91812,2.3424 -17.00136,-16.6961 -0.84225,-7.6971 -2.28253,-14.7993 -3.20062,-15.7826 -1.35513,-1.4514 -5.65218,-1.5575 -22.83387,-0.5643 -11.64053,0.673 -23.6551,1.2047 -26.69905,1.1815 -10.17107,-0.077 -10.01524,-0.6823 -9.54697,37.0681 0.3922,31.6175 0.58179,33.7984 3.48624,40.1025 6.51231,14.135 18.51732,21.6312 35.04889,21.8854 5.80339,0.089 9.2666,-0.7913 15.64178,-3.9771 z m -96.50732,-208.5155 c -2.48848,-1.8658 -1.60256,-3.8816 23.00001,-52.3334 18.62955,-36.6886 26.26763,-50.4998 28.08665,-50.7865 2.06552,-0.3255 6.70009,8.1522 26.74516,48.9231 13.33567,27.1243 24.24668,50.4815 24.24668,51.9049 0,1.5568 -1.19539,2.9084 -3,3.392 -1.65,0.4422 -24.03532,0.8122 -49.74516,0.8222 -38.86064,0.015 -47.18172,-0.3091 -49.33334,-1.9223 z M 329.32923,1294.889 c -2.3565,-0.788 -1.42325,-4.2578 2.50147,-9.3005 2.10687,-2.707 11.20324,-15.1218 20.21416,-27.5884 17.34534,-23.9974 48.82265,-65.8652 60.99808,-81.1333 7.04137,-8.8299 7.3618,-9.0513 9.64825,-6.6666 2.37533,2.4773 58.70304,111.1483 61.62694,118.8946 0.8588,2.2753 1.25754,4.4407 0.88609,4.8122 -0.7393,0.7393 -153.71848,1.703 -155.87499,0.982 z m 335.67082,0.1113 c -59.51772,-0.285 -74.33334,-0.6978 -74.33334,-2.0713 0,-1.4226 60.74476,-112.3748 66.75443,-121.9289 1.03787,-1.65 2.63549,-3 3.55026,-3 2.93105,0 30.83929,36.9885 67.12997,88.9715 9.84428,14.101 19.23399,27.5179 20.86602,29.8154 4.11242,5.7891 2.2424,9.3411 -4.68091,8.8912 -2.7242,-0.1771 -38.40309,-0.4821 -79.28643,-0.6779 z m 281.8292,137.3331 c 7.89111,-17.1319 15.37729,-39.7696 18.76275,-56.7373 4.17581,-20.9288 4.16082,-55.4773 -0.0326,-75.1264 -5.50697,-25.804 -16.78086,-53.0293 -32.36228,-78.1517 l -6.55258,-10.565 5.67777,4.1543 c 8.65683,6.3339 25.79176,23.4398 34.74461,34.6857 27.08143,34.0178 41.21209,68.8098 44.43519,109.4071 0.8741,11.0102 1.1346,11.9692 1.9923,7.3333 3.564,-19.2649 2.4673,-57.1681 -2.2417,-77.4729 -12.67582,-54.6572 -51.00002,-90.0995 -109.58917,-101.3483 -12.75502,-2.4489 -39.07394,-3.1586 -51.52182,-1.3893 l -7.85835,1.1169 9.85835,5.3414 c 19.80227,10.7292 36.68563,23.4441 46.13178,34.7418 5.20665,6.2273 10.68144,16.5 9.44993,17.7315 -0.42879,0.4288 -8.49195,-4.4242 -17.91815,-10.7845 -26.20738,-17.6832 -54.33995,-30.283 -77.51614,-34.7173 -5.51823,-1.0558 -10.17121,-1.7621 -10.33996,-1.5695 -0.16875,0.1926 4.24072,4.2502 9.79882,9.0169 19.01592,16.3081 35.33695,41.7864 43.55991,68 3.34083,10.65 7.67931,34.7131 9.48407,52.6026 1.03491,10.2584 2.31325,7.8704 5.26344,-9.8325 4.02612,-24.159 1.42482,-49.4912 -7.0336,-68.4952 -4.54948,-10.2215 -2.98385,-12.0561 5.89,-6.9019 16.83305,9.7773 32.49888,25.0521 44.68529,43.5699 3.84543,5.8433 7.16872,10.0931 7.38509,9.444 0.21637,-0.6491 -0.81764,-4.7001 -2.29781,-9.0023 -1.48017,-4.3022 -2.3922,-8.1212 -2.02673,-8.4867 1.58116,-1.5811 7.18637,2.6535 12.31978,9.3073 13.51455,17.5174 18.83994,37.8028 19.96755,76.0599 0.77698,26.3613 -0.44523,41.608 -5.05382,63.0448 -1.41613,6.5871 -2.91139,13.0371 -3.32279,14.3333 -0.4114,1.2962 -0.3801,2.3568 0.0696,2.3568 0.44966,0 3.23575,-5.25 6.19132,-11.6667 z m -814.26718,-5.5009 c -4.64992,-22.8509 -6.49335,-52.8149 -4.73321,-76.936 1.69724,-23.2591 4.91416,-37.1791 11.47947,-49.6729 5.29071,-10.0682 15.12898,-21.5569 18.46018,-21.5569 1.96888,0 1.91726,0.6985 -0.50591,6.8462 -3.99967,10.1472 -2.57746,10.4797 4.08886,0.9559 9.5396,-13.6287 26.23513,-30.0734 39.21606,-38.6269 17.28335,-11.3885 18.86204,-10.7454 12.13495,4.9434 -8.37894,19.5413 -10.84945,42.5602 -6.80773,63.4308 3.41469,17.6328 3.98711,17.5149 6.54279,-1.348 6.48107,-47.8351 23.85962,-82.4967 53.8898,-107.4834 5.25421,-4.3718 9.31254,-8.1892 9.01853,-8.4833 -0.96904,-0.969 -21.13563,4.012 -32.67918,8.0715 -14.61587,5.14 -32.17916,13.9783 -54.5997,27.4761 -9.86317,5.9378 -18.16343,10.5657 -18.44502,10.2841 -1.19875,-1.1987 10.0358,-16.6347 17.55127,-24.1149 10.34135,-10.2929 21.54417,-17.8623 38.36718,-25.9235 15.36546,-7.3627 15.29518,-7.4442 -7.6158,-8.8352 -44.68212,-2.7126 -88.18242,11.6607 -115.93963,38.3087 -22.667025,21.7613 -34.712137,46.8562 -39.456901,82.2051 -1.738445,12.9515 -0.832684,52.2719 1.328811,57.6855 1.101578,2.7591 1.321568,2.12 1.397295,-4.0587 0.12638,-10.3118 3.385562,-29.2985 7.445279,-43.3731 8.756707,-30.3588 29.434846,-63.0249 56.150446,-88.7034 9.58127,-9.2093 19.94187,-16.9444 21.08549,-15.7423 0.25398,0.267 -3.13139,5.8854 -7.52305,12.4854 -9.91916,14.907 -22.3987,40.4068 -26.99152,55.1524 -11.25798,36.1448 -10.4965,82.9898 1.98849,122.3285 3.8024,11.9808 16.84031,41.4717 17.8288,40.3275 0.22571,-0.2613 -0.97852,-7.3004 -2.67605,-15.6426 z m 904.76783,-94.8152 c 11.2033,-54.9755 -15.0873,-112.6299 -61.99649,-135.9563 -10.96111,-5.4506 -24.48419,-9.3398 -32.59639,-9.3746 -4.32301,-0.019 -3.76789,0.5245 9.33333,9.1299 51.02445,33.5146 75.60195,76.9932 79.46355,140.5743 1.0092,16.6164 1.6111,16.1622 5.796,-4.3733 z M 45.374511,1318.0001 c 3.353069,-25.0165 12.607091,-50.3332 25.842409,-70.6984 13.672569,-21.0379 41.84652,-46.2839 64.57896,-57.8676 3.18773,-1.6244 5.51959,-3.2297 5.18191,-3.5674 -0.33768,-0.3377 -5.04582,0.065 -10.46254,0.8941 -42.487787,6.5059 -80.077582,43.9782 -91.183698,90.8986 -4.277489,18.0713 -3.922706,40.405 0.990315,62.3407 l 1.642478,7.3333 0.990234,-9.3333 c 0.544628,-5.1334 1.633598,-14.1334 2.419932,-20 z m 56.625499,-145.6248 c 19.31001,-5.9219 31.21067,-6.9677 59.33334,-5.2137 13.03201,0.8128 19.64913,0.6783 23.97513,-0.4872 l 5.97513,-1.6099 -3.68641,-1.9315 c -15.14189,-7.9337 -52.50786,-10.3027 -73.59719,-4.6661 -14.251326,3.809 -30.796856,12.1113 -39.20914,19.6747 -11.584158,10.4152 -10.565385,11.3401 4.293655,3.8983 7.470182,-3.7412 17.782149,-8.0903 22.915485,-9.6646 z m 903.45029,10.5098 c -2.5792,-4.8193 -12.60195,-12.5797 -21.94502,-16.9917 -16.58923,-7.8339 -24.07058,-9.2084 -50.17188,-9.218 -23.50664,-0.01 -31.51836,1.1479 -44.17684,6.3775 l -4.48983,1.8549 7.92198,2.3243 c 5.29255,1.5528 10.16064,2.0723 14.66666,1.5653 18.00586,-2.0262 40.35839,-2.3892 49.32604,-0.8012 11.73151,2.0774 28.73962,7.7756 38.96924,13.0556 9.39075,4.8471 11.74605,5.2833 9.89965,1.8333 z m 1.9327,-31.7982 c -8.0551,-16.2263 -16.03113,-24.6548 -26.18445,-27.67 -6.73367,-1.9997 -8.78835,-1.928 -37.0441,1.2937 -16.45326,1.8759 -30.71887,3.1023 -31.70136,2.7253 -3.12959,-1.2009 -1.9274,-4.7221 2.54698,-7.4599 2.38333,-1.4584 12.07265,-5.1996 21.53182,-8.3138 10.89336,-3.5863 18.54962,-6.9183 20.88395,-9.0887 5.09639,-4.7383 7.07146,-13.0343 6.00908,-25.2401 -0.93784,-10.775 -5.73812,-30.6667 -7.4005,-30.6667 -0.55927,0 -1.37703,2.25 -1.81725,5 -1.17552,7.3435 -6.91616,18.0173 -13.8199,25.6959 -3.5582,3.9576 -14.10881,12.0373 -25.51574,19.5403 -21.8387,14.3643 -32.88375,24.0979 -40.36202,35.5694 -4.68981,7.1941 -11.20344,21.9449 -10.15384,22.9945 0.24716,0.2471 6.6667,-1.9913 14.26564,-4.9743 51.37213,-20.1665 91.56695,-16.8731 128.71209,10.5462 2.9333,2.1653 5.5857,3.715 5.8941,3.4439 0.3084,-0.2711 -2.3216,-6.2992 -5.8445,-13.3957 z m -916.451891,-3.6124 c 17.929091,-8.1321 24.815241,-9.4849 47.735571,-9.3782 17.89875,0.083 22.40411,0.5633 33.63934,3.583 10.55075,2.8357 25.47451,8.2745 38.2269,13.9314 2.65341,1.177 1.08606,-4.6489 -4.3791,-16.2773 -7.33034,-15.597 -20.03449,-27.736 -46.06211,-44.0127 -18.23761,-11.4052 -28.23061,-21.265 -34.74659,-34.2836 -2.93981,-5.8735 -5.36913,-11.6597 -5.39849,-12.8581 -0.11578,-4.7257 -3.8399,5.0283 -6.01124,15.7443 -2.78896,13.7641 -2.2128,31.062 1.2082,36.2733 2.50568,3.817 11.37586,8.1279 24.40427,11.8605 13.3292,3.8188 24.45215,9.2985 24.45215,12.0463 0,1.3233 -0.48216,2.7039 -1.07147,3.0681 -0.5893,0.3643 -13.14987,-0.7302 -27.91238,-2.4322 -35.308219,-4.0705 -41.855943,-2.7951 -56.733879,11.0511 -6.786444,6.3159 -14.279215,19.5189 -14.281224,25.165 -9.74e-4,2.7355 0.638401,2.5083 8.596718,-3.0549 4.728773,-3.3057 12.978774,-7.9974 18.333334,-10.426 z m 447.755251,-68.4744 c 0.037,-14.4278 6.33781,-19.8276 8.557,-7.3334 0.68382,3.85 1.6438,7 2.13328,7 0.48948,0 3.29487,-1.7421 6.2342,-3.8713 5.68416,-4.1176 7.21826,-7.201 5.71339,-11.4833 -0.89134,-2.5365 -0.96888,-2.5219 -1.88342,0.3546 -1.202,3.7807 -4.21775,3.8643 -6.19396,0.1717 -1.70036,-3.1772 -0.73819,-14.0075 2.07481,-23.3544 0.9629,-3.1995 1.47001,-5.8173 1.1269,-5.8173 -2.27201,0 -6.3085,3.5539 -9.15138,8.0573 -3.71768,5.8892 -5.23442,6.4636 -7.22862,2.7374 -3.23722,-6.0488 3.47824,-25.5835 12.70466,-36.9568 2.45196,-3.0225 4.08107,-5.8725 3.62025,-6.3334 -1.76411,-1.7641 -10.75563,-0.6537 -19.39343,2.3948 -4.95,1.7471 -9,2.7042 -9,2.1271 0,-0.5772 2.40173,-3.2192 5.33717,-5.8712 6.2336,-5.63171 4.75368,-6.07959 -5.03316,-1.52325 -14.86905,6.92245 -27.48524,23.24545 -30.98081,40.08355 -2.13601,10.2891 -0.95401,13.449 1.72738,4.6178 2.7482,-9.0512 6.91594,-16 9.59649,-16 1.57849,0 2.04006,1.8202 2.11331,8.3334 0.0515,4.5833 0.55827,9.5227 1.12606,10.9763 0.82204,2.1045 1.37008,1.2352 2.6901,-4.2673 3.47594,-14.4893 8.18416,-12.2908 10.61711,4.9576 2.42948,17.224 9.25265,38.6667 12.30388,38.6667 0.64302,0 1.17798,-3.45 1.18879,-7.6666 z m -310.01318,-26.6059 c -1.18739,-8.6501 -3.69031,-23.2275 -5.56204,-32.3942 -11.30186,-55.34998 -13.40634,-66.04254 -13.07372,-66.42567 0.20327,-0.23415 1.47801,0.27652 2.83276,1.13481 4.4755,2.83542 9.68884,10.84457 14.10638,21.67133 l 4.35679,10.67786 0.83631,-22.52914 c 0.45997,-12.39103 1.56522,-29.00013 2.45612,-36.90912 1.42726,-12.67058 1.36897,-14.7628 -0.49034,-17.60047 -2.8849,-4.40291 -20.2821,-14.45485 -22.64172,-13.08217 -7.41892,4.31587 -54.40209,66.05079 -63.55349,83.50799 -15.43495,29.44368 -14.06567,53.00508 4.02571,69.27078 3.90848,3.5141 9.58992,7.0292 13.41428,8.2994 7.30935,2.4278 20.74471,3.0595 22.7352,1.069 0.8015,-0.8015 -0.41306,-4.9121 -3.3022,-11.1761 -6.37079,-13.8128 -8.76144,-23.6659 -9.68298,-39.9085 -1.19048,-20.98292 4.31606,-45.36246 12.28693,-54.39881 l 3.17653,-3.60114 -0.80297,12 c -2.04778,30.60288 6.92921,58.78895 31.33786,98.39495 10.39713,16.8707 10.88729,16.3508 7.54459,-8.0008 z m 625.69145,7.9392 c 26.71996,-41.0891 36.19762,-74.58921 30.06611,-106.27277 -0.73857,-3.81647 -0.66987,-3.878 2.20139,-1.97155 1.63007,1.08232 4.45393,5.50159 6.27526,9.82059 11.39588,27.02363 11.30468,54.56703 -0.27652,83.51333 -2.54694,6.3659 -4.6308,12.3366 -4.6308,13.2681 0,1.2851 2.39513,1.5127 9.92482,0.9432 12.75552,-0.9647 24.21031,-5.9796 31.34965,-13.7248 7.9931,-8.6715 9.86272,-13.9602 9.86633,-27.9095 0.003,-10.4537 -0.5527,-13.3685 -4.31047,-22.62123 -5.37165,-13.22655 -12.5876,-25.17368 -28.20217,-46.69307 -16.9414,-23.34796 -27.38673,-36.28423 -30.75163,-38.08506 -2.49299,-1.33421 -4.09552,-0.67605 -12.37027,5.08049 -5.22845,3.63729 -11.50353,7.63688 -13.94464,8.88798 -7.10154,3.63962 -8.58054,8.96161 -6.93817,24.96612 0.7571,7.37772 1.40745,18.30046 1.44523,24.27276 l 0.0687,10.85872 7.1148,-14 c 7.34859,-14.46004 11.43062,-19.63812 14.15428,-17.95481 2.20497,1.36275 1.12897,7.88047 -7.35914,44.57709 -8.92761,38.59671 -15.75453,77.37771 -13.62141,77.37771 0.33979,0 4.81219,-6.45 9.93866,-14.3333 z M 495.39704,1004.472 c 5.54294,-5.98092 4.44749,-8.44209 -8.397,-18.86582 -6.41667,-5.20734 -16.76667,-14.35301 -23,-20.32372 -14.03726,-13.44583 -9.95102,-11.49668 19.02598,9.07547 11.16905,7.92943 21.03973,14.86728 21.93486,15.41745 2.44543,1.50302 9.70583,-2.76628 9.70583,-5.70727 0,-3.78408 -5.44588,-9.56445 -20.16706,-21.40572 -27.3008,-21.95996 -44.81885,-32.50444 -118.49962,-71.32742 -60.33942,-31.79331 -87.04394,-46.30821 -115.60245,-62.83421 -32.3398,-18.71413 -31.92695,-17.1965 2.93577,10.79186 31.09375,24.96256 72.69972,53.96414 123.22267,85.89275 10.57247,6.68141 18.64338,12.14801 17.93535,12.14801 -2.11733,0 -45.34115,-17.65093 -72.14579,-29.46153 -13.75672,-6.06146 -37.91222,-17.51139 -53.67889,-25.44427 -15.76667,-7.93289 -28.88156,-14.42436 -29.14421,-14.42549 -1.03299,-0.004 14.09406,13.08718 23.67901,20.49286 5.57253,4.30554 16.68427,12.3714 24.69277,17.92415 14.79612,10.25898 17.06113,14.1271 4.40566,7.52384 -78.36133,-40.88669 -114.78094,-64.01327 -133.65985,-84.87448 -41.4847,-45.84061 -36.87932,-101.84892 13.57303,-165.06843 4.97452,-6.23333 29.4939,-32.03333 54.48752,-57.33333 59.48933,-60.21857 66.63375,-70.62064 75.45761,-109.86417 6.00318,-26.69872 13.3952,-40.4123 26.1791,-48.56709 3.48115,-2.22061 12.62936,-6.40711 20.32936,-9.30334 7.7,-2.89623 32.90001,-13.06481 56.00001,-22.59684 77.04405,-31.79162 99.43967,-39.00191 121.14245,-39.00191 16.56429,0 22.42076,2.46402 49.97799,21.0275 23.73412,15.9881 49.48292,29.47809 67.78826,35.51477 13.34557,4.40106 43.89424,12.04217 59.09132,14.78045 40.3912,7.27788 57.88867,23.40333 64.78964,59.70932 3.42796,18.03445 13.58103,31.55262 29.53378,39.32234 4.58879,2.23496 17.94326,7.0979 29.67659,10.80655 22.73995,7.18759 33.51901,12.66493 43.13798,21.92044 12.17097,11.71106 16.73708,22.45729 19.52123,45.94273 3.98387,33.6056 9.7916,46.21694 32.18274,69.884 8.4667,8.94915 12.37292,14.43959 17.22036,24.20426 5.43887,10.95608 6.27733,13.75082 6.32781,21.09193 0.0765,11.12295 -2.05354,15.05918 -19.59898,36.21842 -16.45206,19.84067 -18.63837,23.67972 -21.5172,37.78315 -4.33861,21.25487 -15.65342,38.28393 -37.76304,56.83428 -11.04939,9.27063 -19.81327,15.19369 -20.80077,14.0582 -0.20647,-0.23741 2.84503,-6.12088 6.7811,-13.07439 10.72265,-18.94275 27.48574,-58.69059 24.75192,-58.69059 -0.58419,0 -3.94665,3.92847 -7.47214,8.72994 -38.89929,52.97817 -91.67806,103.53155 -118.97762,113.961 -7.43698,2.8412 -27.12673,5.32412 -27.12673,3.42074 0,-0.49812 1.59404,-2.38298 3.54231,-4.18858 1.94828,-1.8056 3.11854,-3.70669 2.60058,-4.22465 -1.83429,-1.83429 -31.52576,3.54117 -45.732,8.2795 -18.21263,6.07462 -41.70692,17.31033 -55.78818,26.67967 -9.99474,6.65028 -28.30539,24.10416 -26.83252,25.57703 0.34349,0.34348 2.93961,-0.83693 5.76916,-2.62315 22.86209,-14.4322 49.21898,-21.79584 91.77398,-25.63999 41.37818,-3.73784 69.02054,-11.04993 100.25566,-26.52012 29.50488,-14.61322 54.56223,-32.70214 81.94021,-59.15268 17.05807,-16.48023 22.67751,-24.49255 28.09071,-40.05238 7.07186,-20.32754 10.49359,-26.05218 32.82258,-54.913 16.51703,-21.34872 18.89086,-26.21764 18.89086,-38.74677 0,-17.36458 -9.38767,-35.72576 -30.17897,-59.02654 -7.78594,-8.72569 -15.16039,-21.91863 -18.38638,-32.89337 -1.18559,-4.03333 -3.02833,-15.20466 -4.09498,-24.82518 -3.35712,-30.27895 -10.87119,-47.28754 -27.56455,-62.39416 -10.80688,-9.77967 -24.16498,-16.41583 -49.77513,-24.72777 -13.09544,-4.25021 -24.03751,-8.69247 -28.33623,-11.50392 -10.86019,-7.10281 -17.90427,-18.06843 -21.62038,-33.65679 -2.16583,-9.08522 -0.49293,-11.50207 4.95298,-7.15564 6.57304,5.24601 23.43066,14.85905 33.15949,18.90917 12.23036,5.09151 38.81524,12.82764 40.00232,11.64056 2.19089,-2.1909 -23.5432,-35.44286 -42.24908,-54.59159 -11.67156,-11.94786 -14.78814,-13.88476 -14.22672,-8.84166 0.50669,4.55139 -2.48688,4.33136 -6.11083,-0.44914 -1.83615,-2.42214 -11.53912,-17.90389 -21.56216,-34.40389 -32.23491,-53.06536 -39.7048,-63.06048 -58.42345,-78.17364 -26.70158,-21.55848 -58.19727,-35.9169 -115.51603,-52.66205 -14.99488,-4.38062 -33.59488,-10.42305 -41.33334,-13.42763 -23.9282,-9.29051 -34.46736,-11.59073 -53.40326,-11.65551 -54.75347,-0.18731 -124.7032,34.00996 -173.34976,84.74782 -6.24237,6.51072 -20.33108,22.93768 -31.30827,36.50435 -22.48774,27.79253 -32.19751,39.0055 -52.33693,60.4394 -35.14362,37.40253 -58.3494,68.91024 -75.49476,102.50328 -7.53673,14.76678 -20.84364,46.29624 -20.84364,49.38703 0,0.67432 1.65,-0.0457 3.66667,-1.6001 19.05306,-14.68545 56.20887,-38.87396 64.74665,-42.15022 7.79321,-2.99053 -7.35981,15.41002 -42.41332,51.50317 -15.4,15.85675 -31.48704,33.6937 -35.74897,39.63768 -27.35111,38.14572 -41.64526,90.34163 -35.06005,128.02381 4.02418,23.02738 14.38312,43.65621 30.82863,61.39228 21.99043,23.71612 75.45832,59.73264 131.31373,88.45428 23.89202,12.28561 67.04533,32.34651 73.33334,34.09083 2.56667,0.71201 12.38338,4.71979 21.81491,8.90618 21.92678,9.73268 67.85143,27.4124 71.20616,27.4124 1.41308,0 4.33643,0.8816 6.49633,1.9591 2.1599,1.0775 6.73987,2.23453 10.17769,2.57119 3.43783,0.33665 7.01282,1.0877 7.94443,1.669 0.9316,0.5813 2.77315,1.225 4.09232,1.4304 1.31918,0.2054 4.61918,1.5462 7.33334,2.9796 6.65394,3.5141 9.13911,3.3604 12.9985,-0.804 z m 91.54076,-29.22855 c 13.78121,-12.40391 42.58557,-31.24116 62.98978,-41.19357 9.57319,-4.66944 28.2058,-12.46019 41.40581,-17.31277 48.34684,-17.77325 64.60683,-25.52062 84.09131,-40.06685 28.35908,-21.17159 57.43516,-60.60929 88.47457,-120.00356 l 6.96799,-13.33333 -5.76693,6.618 c -10.58132,12.14289 -38.42444,45.05072 -64.6659,76.42874 -25.03725,29.9381 -34.17405,39.05217 -44.35797,44.24762 -2.62624,1.33981 -14.6678,6.32909 -26.75903,11.08729 -65.06239,25.60369 -114.22106,54.36234 -149.7739,87.62028 -9.08382,8.49747 -10.07126,10.27031 -7.27682,13.06475 2.76761,2.7676 4.68299,1.83327 14.67109,-7.1566 z m -82.20237,-125.3617 c 4.82497,-10.26898 9.50137,-18.36329 11.36221,-19.66667 7.90997,-5.54036 14.08138,-0.68934 24.44723,19.21664 8.94534,17.17813 11.27007,20.3818 13.46691,18.55858 0.9633,-0.79947 7.29477,-9.24676 14.06994,-18.77175 17.36557,-24.41372 21.25598,-27.20046 28.84397,-20.66121 3.66146,3.15539 3.73253,3.48535 3.34162,15.51487 -0.96865,29.80868 4.05569,27.34916 32.83243,-16.07217 8.50507,-12.83333 18.18698,-26.05067 21.51537,-29.37186 10.24724,-10.2251 21.19304,-13.48671 26.71827,-7.96148 3.97822,3.97822 3.27086,9.67615 -2.53207,20.39614 -8.65469,15.98822 -8.50637,17.11634 1.24674,9.48243 33.35058,-26.10401 70.51951,-73.68957 93.46302,-119.65614 4.88496,-9.78684 4.59394,-9.53168 -9.63046,8.44424 -21.05244,26.60474 -47.60296,51.7605 -62.71029,59.41597 -3.57698,1.81259 -6.5036,2.90847 -6.5036,2.43529 0,-0.47318 3.964,-5.06239 8.8089,-10.19823 26.18774,-27.76038 45.27952,-64.06007 51.81644,-98.51994 2.17422,-11.46152 4.36995,-42.46643 3.00743,-42.46643 -0.42737,0 -1.48191,3.45 -2.34343,7.66667 -4.19806,20.54732 -14.01679,44.7746 -24.92078,61.49087 -6.30593,9.66726 -26.89343,30.3697 -36.48824,36.69198 -20.72026,13.65312 -41.42688,14.95001 -62.68332,3.92597 -21.03014,-10.90668 -39.40379,-34.80161 -45.71106,-59.44726 -0.96598,-3.77454 -2.36136,-7.06448 -3.10086,-7.31098 -0.73949,-0.24649 -2.10618,2.27214 -3.03707,5.59697 -1.9824,7.08041 -1.11226,15.77817 2.68166,26.80537 3.61595,10.50996 3.26733,11.4199 -2.06282,5.38414 -8.02559,-9.08804 -10.56878,-17.7554 -10.6034,-36.13706 -0.0262,-13.92702 0.37109,-16.88662 3.06663,-22.84325 4.39427,-9.71049 8.8383,-13.33132 22.67694,-18.4763 23.8245,-8.85756 45.24838,-21.2493 67.04287,-38.7781 15.51446,-12.47792 29.18344,-25.41435 29.18344,-27.61944 0,-1.4769 -6.78144,-1.82273 -37,-1.88686 -84.81311,-0.18 -150.12245,-11.20805 -251.00002,-42.38353 -34.33392,-10.61065 -38.32089,-10.82863 -46.79066,-2.55812 -6.99713,6.83251 -8.96656,13.2358 -5.89672,19.17222 5.21265,10.08015 41.07904,43.86773 67.98016,64.04004 20.37018,15.27497 34.30783,23.48914 49.05131,28.90847 19.36653,7.11864 22.36588,8.65956 25.91643,13.31457 4.68559,6.14313 6.77633,21.56257 4.62487,34.10893 -1.67835,9.7874 -6.83238,22.19648 -10.4659,25.19822 -1.95968,1.61893 -2.09324,1.39449 -1.30727,-2.19685 2.96544,-13.55001 1.98373,-33.67458 -1.75543,-35.98551 -0.57306,-0.35417 -2.05578,3.39768 -3.29493,8.33745 -6.87766,27.41721 -26.22275,54.25569 -47.14543,65.40736 -27.4057,14.60709 -56.77429,8.49117 -83.79534,-17.45012 -21.45104,-20.59386 -34.69114,-45.39464 -41.80598,-78.30918 l -2.44983,-11.33334 -0.0915,12.66667 c -0.35159,48.69762 19.95899,97.79072 56.25336,135.97109 4.93504,5.19149 8.97281,9.68921 8.97281,9.99493 0,1.03292 -16.58627,-8.77306 -29.33334,-17.34218 -16.83991,-11.3205 -34.5794,-27.07835 -45.90829,-40.77997 -13.47852,-16.30148 -13.60007,-16.34697 -6.70812,-2.51053 14.50438,29.11932 35.93133,59.44499 56.55627,80.04439 11.6015,11.58714 29.8744,26.57796 32.43532,26.60946 3.39097,0.0417 1.98463,-5.06344 -3.64346,-13.22618 -7.15713,-10.38038 -7.59491,-14.86482 -1.86671,-19.12202 l 3.53167,-2.62474 7.135,3.29925 c 9.0409,4.18056 21.91675,13.8905 27.24912,20.54913 2.26276,2.82556 9.68502,12.93738 16.49389,22.47071 12.40775,17.37252 18.38002,24.66667 20.19644,24.66667 0.53472,0 1.17247,-7.13889 1.41722,-15.86421 0.4988,-17.78228 2.10994,-21.46912 9.38198,-21.46912 5.26533,0 8.17585,3.53896 18.26368,22.20722 4.6937,8.68603 10.05567,18.43656 11.9155,21.66786 l 3.3815,5.87507 2.01897,-4.54174 c 1.11043,-2.49796 5.70887,-12.39498 10.21876,-21.99337 z m 40.59794,-70.14234 c -4.03333,-0.70522 -14.08333,-1.01428 -22.33333,-0.68679 -9.22922,0.36637 -15,0.097 -15,-0.70027 0,-1.83371 23.93178,-56.08862 25.40588,-57.59676 0.66899,-0.68444 1.59417,-0.86662 2.05596,-0.40483 1.87454,1.87455 24.47547,58.67203 23.78889,59.78293 -0.87986,1.42365 -4.03072,1.33439 -13.9174,-0.39428 z M 403.13983,674.16683 c 17.98334,-7.51392 26.18784,-30.33068 17.13655,-47.65684 -14.27319,-27.32202 -53.38485,-23.18681 -61.71122,6.52463 -4.4432,15.8549 4.39003,34.54121 19.43487,41.11362 5.28745,2.30984 19.63066,2.32045 25.1398,0.0186 z m 283.82655,-0.89427 c 13.33937,-3.70468 23.72295,-17.92817 23.67106,-32.42479 -0.0705,-19.70013 -14.30281,-34.5441 -33.30406,-34.7354 -19.22127,-0.19352 -33.37344,14.33009 -33.30405,34.17817 0.0818,23.38562 20.63719,39.17524 42.93705,32.98202 z M 643.4429,530.60668 c 8.1269,-0.76132 16.5269,-1.9077 18.66667,-2.5475 l 3.89048,-1.16328 -4,-0.11682 c -46.87161,-1.36892 -114.50273,-9.60211 -165.33335,-20.12714 -19.79434,-4.09864 -66.3627,-15.40076 -69.19764,-16.79425 -0.80796,-0.39715 -0.26903,0.29432 1.19764,1.53659 1.46667,1.24227 6.86667,4.21265 12,6.60084 29.98079,13.94801 85.70831,26.71193 136.66668,31.30235 32.32154,2.91158 46.09347,3.18431 66.10952,1.30921 z M 358.00003,293.75782 c 44.39522,-26.66898 94.47547,-46.61802 139.9359,-55.74226 30.69078,-6.15986 37.54456,-5.79155 51.40292,2.76231 10.71193,6.61178 19.42973,9.01283 52.83954,14.55303 44.59162,7.39442 62.50615,12.45203 78.10629,22.05089 l 6.75071,4.15375 -4.3523,-7.76776 c -9.19876,-16.4175 -23.97001,-32.6218 -40.17187,-44.0692 -10.79922,-7.63018 -34.28456,-19.10913 -48.671,-23.78898 -18.44584,-6.00034 -10.91271,-7.97093 12.34639,-3.22969 41.36246,8.43151 79.95889,27.89295 123.81459,62.4309 6.56372,5.16916 12.12474,9.20776 12.35784,8.97466 0.79153,-0.79153 -18.66663,-33.33661 -31.14103,-52.08546 -27.35442,-41.11329 -50.80481,-66.63224 -89.74033,-97.65633 -3.18795,-2.54018 -3.18574,-2.54069 6.45498,-1.51058 15.45444,1.6513 33.34207,8.55373 54.50701,21.03303 3.79154,2.23558 6.89372,3.57866 6.89372,2.98463 0,-2.12495 -25.65635,-28.22789 -35.731,-36.35296 C 632.42087,93.415181 611.60047,81.211244 584.00004,69.700184 l -14,-5.838855 10.66667,0.812672 c 25.16266,1.917095 58.33158,11.819485 86.94612,25.957269 l 17.61278,8.702068 -4.94611,-5.117289 C 677.55914,91.40154 670.83338,85.449211 665.33338,80.988653 588.90931,19.007918 492.2346,12.970938 417.33336,65.501964 c -14.03964,9.846525 -35.87303,31.45341 -47.49182,46.999136 -5.41283,7.24226 -9.84151,13.70239 -9.84151,14.35582 0,0.65344 3.75,-1.74748 8.33333,-5.33537 13.25536,-10.37648 34.564,-23.844467 46.7927,-29.575026 6.1968,-2.903919 11.4785,-5.280155 11.73711,-5.280525 0.25861,-3.69e-4 -13.04623,13.649631 -29.56631,30.333331 -30.41915,30.72043 -49.74368,52.28217 -64.23126,71.66735 -9.24651,12.37233 -19.07741,28.43261 -18.03959,29.47043 0.39358,0.39358 3.02374,-0.45899 5.84481,-1.8946 9.85357,-5.01436 29.19835,-11.07686 37.79587,-11.84491 l 8.66667,-0.77423 -15.38191,15.85499 c -17.6837,18.22757 -30.32166,34.59112 -38.34424,49.64787 -3.08395,5.78796 -5.60719,10.89275 -5.60719,11.34397 0,0.45122 7.49599,-4.58093 16.65775,-11.18256 24.42105,-17.59693 40.77706,-28.05708 58.02148,-37.10643 15.71242,-8.24541 39.22407,-17.99122 41.54067,-17.21902 0.71408,0.23803 -5.97275,6.3212 -14.85964,13.51816 -24.3236,19.69822 -36.45594,30.80672 -49.71511,45.51966 -11.76491,13.05486 -24.97848,30.51534 -24.97848,33.00671 0,0.69034 1.95,-0.0259 4.33334,-1.59161 2.38333,-1.56572 10.93333,-6.8115 19,-11.65729 z"
            id="path1"/>
  </g>
</svg>
