<?xml version="1.0" encoding="utf-8"?>
<!-- Generator: Adobe Illustrator 22.1.0, SVG Export Plug-In . SVG Version: 6.00 Build 0)  -->
<svg version="1.1" id="Layer_1" xmlns="http://www.w3.org/2000/svg" xmlns:xlink="http://www.w3.org/1999/xlink" x="0px" y="0px"
	 viewBox="0 0 512 512" style="enable-background:new 0 0 512 512;" xml:space="preserve">
<style type="text/css">
	.st0{fill:#6770E6;}
	.st1{fill:#5861C7;}
	.st2{fill:#FFEFE4;}
	.st3{fill:#D476E2;}
	.st4{fill:#EA82FA;}
	.st5{fill:#B665C2;}
	.st6{fill:#69EBFC;}
	.st7{fill:#FF8354;}
	.st8{fill:#333399;}
	.st9{fill:#E0734A;}
	.st10{fill:#FFAC8C;}
	.st11{fill:#382F8B;}
	.st12{fill:#C7FCFE;}
	.st13{fill:#EDD4C2;}
	.st14{fill:#8F95E6;}
	.st15{fill:#A1F1FC;}
	.st16{fill:#FFF7F2;}
	.st17{opacity:0.8;fill:#A1F1FC;}
	.st18{fill:#4C54AD;}
	.st19{fill:#5FD4E3;}
	.st20{fill:#FFE4D1;}
	.st21{fill:#5ED4E3;}
	.st22{fill:#56C1CF;}
	.st23{fill:#9FA5FF;}
	.st24{fill:#C46541;}
	.st25{fill:#FFCAB5;}
	.st26{fill:#5A62C9;}
	.st27{fill:#BABEFF;}
</style>
<g>
	<rect y="8" class="st5" width="512" height="20"/>
	<rect y="8" class="st4" width="512" height="10"/>
	<path class="st8" d="M198,6.496v23.007c0,3.588,2.909,6.496,6.496,6.496h21.007c3.588,0,6.496,2.909,6.496,6.496V68h48V42.496
		c0-3.588,2.909-6.496,6.496-6.496h21.007c3.588,0,6.496-2.909,6.496-6.496V6.496C314,2.909,311.091,0,307.504,0H204.496
		C200.909,0,198,2.909,198,6.496z"/>
	<g>
		<path class="st3" d="M280,68h-48l17.439,20.927C251.062,90.874,253.465,92,256,92l0,0c2.535,0,4.938-1.126,6.561-3.073L280,68z"/>
	</g>
	<path class="st0" d="M489.5,468h-467c-12.15,0-22,9.85-22,22v0c0,12.15,9.85,22,22,22h467c12.15,0,22-9.85,22-22v0
		C511.5,477.85,501.65,468,489.5,468z"/>
	<path class="st1" d="M489.5,492h-467c-8.548,0-15.952-4.878-19.594-12c-1.535,3.001-2.406,6.398-2.406,10c0,12.15,9.85,22,22,22
		h467c12.15,0,22-9.85,22-22c0-3.602-0.871-6.999-2.406-10C505.452,487.122,498.048,492,489.5,492z"/>
	<polygon class="st9" points="241,468 211,468 271,310 301,310 	"/>
	<path class="st7" d="M85.594,286.86L85.594,286.86c5.562,9.635,17.257,13.86,27.693,10.005l114.227-42.191l0,0
		c-18.205-31.532-58.524-42.335-90.056-24.13l-43.505,25.117C83.03,261.968,79.287,275.936,85.594,286.86z"/>
	<path class="st10" d="M93.954,265.661l43.505-25.117c28.695-16.567,64.663-9.103,84.623,16.137l5.433-2.007l0,0
		c-18.205-31.532-58.524-42.335-90.056-24.13l-43.505,25.117c-8.874,5.124-13.009,15.303-10.867,24.8
		C84.433,274.444,88.193,268.987,93.954,265.661z"/>
	<path class="st7" d="M162.834,420.645L162.834,420.645c-5.562-9.635-3.374-21.875,5.182-28.986l93.652-77.828l0,0
		c18.205,31.532,7.401,71.851-24.13,90.056l-43.505,25.117C183.11,435.311,169.141,431.569,162.834,420.645z"/>
	<path class="st2" d="M426.457,179.253c-15-25.981-103.818-27.818-164.44,7.182S141.98,276.523,141.98,276.523l29,50.23l29,50.23
		c0,0,77.416-23.912,138.038-58.912S441.457,205.234,426.457,179.253z"/>
	<circle class="st7" cx="307.379" cy="248.003" r="45.5"/>
	<circle class="st6" cx="307.379" cy="248.003" r="31.999"/>
	<path class="st7" d="M334.645,162.229l60.649,105.047c26.882-34.084,40.693-71.518,31.163-88.024S377.604,155.991,334.645,162.229z
		"/>
	<path class="st13" d="M174.028,374.032l-42.469-73.559c-1.689-2.926-1.545-6.563,0.37-9.346l10.051-14.604l58,100.459
		l-17.673,1.402C178.938,378.651,175.717,376.958,174.028,374.032z"/>
	<path class="st7" d="M124.214,353.752L124.214,353.752c-3.015-5.222-1.226-11.899,3.996-14.914l91.941-53.082
		c5.222-3.015,11.899-1.226,14.914,3.996l0,0c3.015,5.222,1.226,11.899-3.996,14.914l-91.941,53.082
		C133.906,360.763,127.229,358.974,124.214,353.752z"/>
	<path class="st9" d="M344,450H168c-9.941,0-18,8.059-18,18v0h212v0C362,458.059,353.941,450,344,450z"/>
	<path class="st1" d="M307.503,0H204.497C200.909,0,198,2.909,198,6.497v10c0-3.588,2.909-6.497,6.497-6.497h103.007
		c3.588,0,6.497,2.909,6.497,6.497v-10C314,2.909,311.091,0,307.503,0z"/>
	<path class="st2" d="M135.072,306.559l6.907-10.036c0,0,2.728-2.529,7.599-6.837l-7.599-13.163l-5.025,7.302l-5.025,7.302
		c-1.437,2.087-1.877,4.655-1.294,7.043c0.194,0.796,0.502,1.572,0.924,2.303L135.072,306.559z"/>
	<path class="st16" d="M149.579,289.686c17.892-15.826,64.789-55.741,112.438-83.251c60.622-35,149.44-33.162,164.44-7.182
		c0.746,1.293,1.343,2.719,1.808,4.256c0.121-0.604,0.233-1.203,0.336-1.796c0.006-0.035,0.012-0.07,0.018-0.106
		c0.099-0.576,0.19-1.146,0.272-1.71c0.007-0.045,0.013-0.09,0.019-0.135c0.081-0.562,0.153-1.119,0.216-1.67
		c0.004-0.032,0.007-0.064,0.01-0.096c0.316-2.799,0.401-5.44,0.25-7.899c-0.007-0.107-0.01-0.216-0.018-0.323
		c-0.025-0.353-0.06-0.697-0.095-1.042c-0.019-0.189-0.036-0.379-0.058-0.566c-0.036-0.304-0.08-0.602-0.124-0.899
		c-0.033-0.22-0.066-0.439-0.103-0.655c-0.046-0.27-0.097-0.536-0.151-0.8c-0.048-0.236-0.098-0.471-0.151-0.703
		c-0.056-0.242-0.114-0.482-0.175-0.718c-0.064-0.246-0.133-0.489-0.204-0.729c-0.064-0.216-0.127-0.431-0.196-0.642
		c-0.084-0.257-0.175-0.508-0.268-0.758c-0.069-0.187-0.135-0.376-0.208-0.559c-0.112-0.28-0.234-0.551-0.357-0.822
		c-0.065-0.144-0.126-0.293-0.194-0.434c-0.197-0.409-0.406-0.808-0.628-1.194c-3.75-6.495-12.114-11.481-23.497-14.76
		c-1.423-0.41-2.893-0.793-4.407-1.149c-3.785-0.89-7.846-1.612-12.134-2.157c-2.573-0.328-5.227-0.592-7.952-0.792
		c-2.725-0.2-5.522-0.336-8.379-0.406c-1.905-0.047-3.836-0.064-5.792-0.052c-2.933,0.018-5.92,0.103-8.95,0.255
		c-1.01,0.051-2.025,0.109-3.044,0.175c-2.038,0.132-4.094,0.294-6.165,0.487c-1.035,0.097-2.074,0.201-3.116,0.313
		c-5.211,0.56-10.502,1.313-15.826,2.265c-1.065,0.191-2.131,0.389-3.198,0.595c-2.134,0.413-4.271,0.858-6.409,1.336
		c-2.138,0.478-4.276,0.988-6.412,1.531c-4.271,1.086-8.532,2.303-12.758,3.655c-9.508,3.042-18.836,6.765-27.701,11.206
		c-2.955,1.48-5.859,3.04-8.7,4.68c-4.736,2.734-9.465,5.591-14.158,8.535c-5.632,3.533-11.214,7.19-16.697,10.91
		c-0.914,0.62-1.825,1.242-2.733,1.865c-47.225,32.411-86.449,68.778-86.449,68.778L149.579,289.686z"/>
	<path class="st10" d="M425.257,177.453c-0.236-0.318-0.482-0.632-0.741-0.942c-0.124-0.148-0.249-0.295-0.378-0.441
		c-0.282-0.32-0.579-0.635-0.886-0.946c-0.111-0.112-0.216-0.227-0.33-0.338c-0.427-0.416-0.874-0.825-1.344-1.225
		c-0.08-0.068-0.167-0.133-0.248-0.2c-0.399-0.332-0.813-0.658-1.242-0.978c-0.162-0.121-0.33-0.24-0.497-0.36
		c-0.376-0.27-0.762-0.536-1.159-0.797c-0.175-0.115-0.349-0.231-0.528-0.344c-0.473-0.3-0.96-0.594-1.46-0.882
		c-0.103-0.059-0.201-0.121-0.305-0.18c-0.617-0.349-1.255-0.688-1.912-1.019c-0.137-0.069-0.281-0.136-0.42-0.204
		c-0.527-0.259-1.064-0.514-1.614-0.762c-0.201-0.09-0.404-0.179-0.608-0.268c-0.533-0.233-1.078-0.461-1.632-0.683
		c-0.184-0.074-0.366-0.149-0.553-0.222c-1.499-0.586-3.07-1.135-4.71-1.647c-0.161-0.05-0.326-0.098-0.488-0.148
		c-0.672-0.205-1.355-0.404-2.049-0.597c-0.202-0.056-0.404-0.112-0.608-0.167c-0.737-0.199-1.486-0.391-2.246-0.576
		c-0.124-0.03-0.246-0.062-0.37-0.092c-0.719-0.172-1.454-0.333-2.192-0.493c-0.25-0.054-0.494-0.111-0.745-0.164
		c-0.788-0.164-1.591-0.318-2.4-0.469c-0.197-0.037-0.389-0.077-0.588-0.112c-0.89-0.161-1.796-0.311-2.711-0.455
		c-0.126-0.02-0.248-0.042-0.375-0.062c-1.007-0.155-2.029-0.3-3.063-0.435c-0.039-0.005-0.078-0.011-0.117-0.016
		c-0.616-0.08-1.246-0.148-1.871-0.22c-0.584-0.068-1.165-0.138-1.757-0.199c-0.656-0.068-1.321-0.128-1.986-0.188
		c-0.564-0.051-1.128-0.101-1.698-0.147c-0.69-0.055-1.385-0.105-2.083-0.151c-0.556-0.037-1.115-0.07-1.676-0.102
		c-0.724-0.041-1.449-0.08-2.182-0.112c-0.535-0.023-1.075-0.04-1.615-0.059c-0.738-0.025-1.475-0.052-2.221-0.069
		c-1.511-0.033-3.042-0.045-4.585-0.041c-0.729,0.002-1.461,0.008-2.197,0.018c-0.536,0.007-1.074,0.016-1.614,0.028
		c-0.824,0.018-1.65,0.039-2.482,0.067c-0.52,0.018-1.044,0.04-1.566,0.062c-1.92,0.08-3.858,0.186-5.812,0.32
		c-1.604,0.111-3.215,0.234-4.838,0.382c-3.924,0.358-7.901,0.827-11.91,1.409l10.793,18.694
		c38.596-3.722,72.295,3.218,81.019,18.329c0.745,1.29,1.341,2.713,1.805,4.247c0.015-0.076,0.033-0.153,0.047-0.228
		c0.082-0.415,0.158-0.828,0.232-1.237c0.062-0.345,0.118-0.686,0.174-1.026c0.061-0.371,0.123-0.744,0.177-1.11
		c0.007-0.045,0.013-0.09,0.019-0.135c0.015-0.106,0.026-0.209,0.041-0.315c0.068-0.491,0.133-0.98,0.187-1.462
		c0.061-0.536,0.105-1.061,0.148-1.585c0.018-0.215,0.038-0.432,0.053-0.646c0.035-0.497,0.059-0.985,0.078-1.471
		c0.009-0.22,0.017-0.439,0.022-0.656c0.012-0.486,0.018-0.968,0.014-1.442c-0.001-0.193-0.007-0.383-0.011-0.574
		c-0.011-0.487-0.025-0.971-0.053-1.445c-0.026-0.432-0.06-0.858-0.101-1.279c-0.005-0.051-0.009-0.104-0.014-0.155
		c-0.018-0.177-0.035-0.354-0.055-0.529c-0.063-0.531-0.139-1.051-0.226-1.562c-0.002-0.01-0.003-0.02-0.005-0.029
		c-0.034-0.2-0.073-0.396-0.112-0.593c-0.082-0.422-0.172-0.837-0.272-1.244c-0.031-0.128-0.061-0.257-0.094-0.383
		c-0.027-0.102-0.057-0.202-0.085-0.304c-0.115-0.42-0.239-0.833-0.374-1.236c-0.063-0.184-0.127-0.367-0.193-0.548
		c-0.139-0.379-0.288-0.749-0.445-1.112c-0.046-0.103-0.089-0.209-0.135-0.312c-0.03-0.065-0.059-0.131-0.088-0.197
		c-0.229-0.491-0.47-0.972-0.735-1.432c-0.271-0.47-0.574-0.929-0.893-1.383C425.466,177.729,425.359,177.592,425.257,177.453z"/>
</g>
</svg>
