<svg xmlns="http://www.w3.org/2000/svg" version="1.1" xmlns:xlink="http://www.w3.org/1999/xlink" xmlns:svgjs="http://svgjs.dev/svgjs" viewBox="0 0 1422 800"><defs><linearGradient x1="50%" y1="0%" x2="50%" y2="100%" id="ssscribble-grad"><stop stop-color="hsl(206, 75%, 49%)" stop-opacity="1" offset="0%"></stop><stop stop-color="hsl(331, 90%, 56%)" stop-opacity="1" offset="100%"></stop></linearGradient></defs><g fill="none" stroke-width="1.5" stroke="url(#ssscribble-grad)" stroke-linecap="round"><path d="M1089.19 608.69C1305.71 641.55 1410.4 678.49 1320.07 716.7 1032.98 767.89 1163.09 813.99 1326.48 784.53 1284.14 747.3 1141.23 693.92 974.17 633.57 837.29 587.75 775.45 561.28 780.11 569.79 836.54 621.97 905.24 714.58 958.76 834.9 1011.78 1004.02 981.68 1025.38 935.15 854.98 902.29 735.16 865.46 658.55 819.32 644.06 765.67 693.65 690.45 784 588.2 884.04 477.73 972.98 354.92 1021.33 247.84 1021.42 192.53 977.48 207.19 897.88 301.01 800.5 424.99 694.12 528.94 595.98 537.07 514.04 421.44 445.69 228.02 395.45 68.67 358.77 51.82 332.16 192.88 310.63 387.41 288.64 465.06 269.21 353.71 244.17 137.19 211.31 9.9 178.45 87.25 139.32 292.16 96.78 458.18 56.8 461.21 18.55 322.67 -11.78 148.96 -32.05 73.58 -35.93 136.4 -18.24 300.05 13.05 474.86 64.01 587.58 127.33 612.69 181.63 562.05 222.28 481.1 232.01 390.62 197.72 333.67 119.9 316.74 6.89 327.33 -117.24 363.96 -226.29 409.6 -288.57 462.8 -286.78 509.31 -216.84 542.17 -97.04 575.03 29.55 592.69 123.84 601.46 160.62 617.8 131.97 640.94 54.87 687.3 -42.25 761.18 -138.49 872.25 -201.64 1013.37 -219.6 1144.97 -193.9 1242.79 -128.47 1260.74 -39.58 1191.1 63.83 1055.25 164.39 925.82 252.27 897.21 329.56 1002.07 389.3 1199.86 434.54 1362.49 469.99 1378.16 498.35 1224.82 524.84 1032.59 548.61 961.9 575.83 1089.19 608.69Q1089.19 608.69 1089.19 608.69" opacity="0.13"></path><path d="M1055.19 622.8C1257.66 653.32 1372.87 680.43 1320.08 702.31 1052.19 727.08 1031.3 709.65 1233.9 659.4 1287.53 620.08 1235.18 575.44 1111.78 535.74 956.96 517.57 826.1 523.98 743.7 564.07 710.04 638.13 717.33 740.38 741.99 855.9 798.01 998.49 831.01 982.37 795.64 820.98 765.12 708.61 715.25 631.63 646.83 606.82 577.62 638.43 491.49 710.72 397.9 800.32 320.36 891.38 262.83 956.49 249.46 984.4 284.82 975.74 371.87 930.34 486.7 860.03 570.11 771.75 586.27 679.51 500.87 593.25 339.37 511.15 166.28 442.36 77.08 386.79 125.76 338.33 287.45 298.92 454.04 265.13 495.05 233.71 373.66 203.5 171.19 172.99 46.55 142.48 98.76 113.11 278.68 86.97 458.09 63.22 517.15 47.11 436.43 42.7 274.98 45.38 145.52 63.91 118.2 98.99 200.99 138.22 352.5 186.65 505.55 234.94 620.47 265.26 666.72 274.5 656.66 251.38 602.79 191.71 539.39 99.24 489.37 -14.17 435.91 -170.97 452.18 -210.79 493.99 -63.04 524.51 55.19 561.49 147.71 608.98 192.82 662.53 181.59 736.2 124.27 833.46 41.4 936.36 -51.75 1050.01 -126.64 1150.91 -168.93 1208 -177.25 1205.56 -147.49 1130.64 -89.33 1017.58 -9.63 902.25 78.8 851.23 165.15 910.32 250.55 1067.15 324.56 1250.96 385.82 1354.05 441.03 1312.36 486.23 1144.72 524.16 976.58 559.82 930.55 592.29 1055.19 622.8Q1055.19 622.8 1055.19 622.8" opacity="0.11"></path><path d="M1021.19 559.96C1209.08 588.12 1330.94 607.36 1312.52 617.16 1170.27 625.73 991.24 622.92 873.33 608.23 867.03 591.92 960.43 565.05 1090.87 531.33 1203.96 503.97 1243.42 480.17 1204.58 468.9 1103.23 480.46 974.97 516.58 854.5 580.65 750.46 667.31 681.91 770.13 643.08 874.28 626.26 960.67 621.31 1014.48 615.49 1021.18 614.49 980.65 602.11 896.69 573.94 786.98 545.78 682.29 503.16 606.08 451.04 572.84 403.73 587.97 357.44 641.6 325.45 716.98 315.47 803 337.64 875.93 398.27 923.37 475.33 944.31 563.14 932.37 627.57 893.7 629.5 833.69 556.65 761.08 414.22 685.37 254.46 605.89 135.8 532.82 121.45 469.38 218.72 408.85 381.72 357.96 513.1 315.94 520.65 275.42 393.08 241.24 205.19 213.07 84.33 184.9 113.7 164.09 265.19 151.48 444.96 140.39 547.47 140.04 529.11 151.75 409.36 166.39 266.06 193.07 173.03 229.14 163.3 261.43 241.76 293.61 369.18 316.7 512.84 318.46 628.41 297 699.85 246.75 729.16 169.97 723.76 71.79 703.41 -34.86 654.88 -165.72 624.2 -168.96 656.49 -29.04 684.66 80.67 731.4 170.35 795.2 221.76 858.95 225.94 937.19 188.17 1021.03 122.42 1090.2 38.92 1141.98 -38.63 1156.09 -95.97 1128.05 -130.71 1052.92 -133.44 946.18 -108.08 855.68 -59.9 810.61 4.33 849.67 75.09 972.03 152.23 1140.59 225.49 1280.99 290.61 1319.99 354.11 1233.51 408.15 1064.62 452.7 924 496.03 900.33 531.79 1021.19 559.96Q1021.19 559.96 1021.19 559.96" opacity="0.32"></path><path d="M987.19 441.86C1160.05 467.68 1284.77 482.61 1296.3 487.21 1193.98 491.72 1031.93 486.11 888.94 471.98 819.67 459.88 844.17 443.09 934.4 426.44 1055.21 419.9 1150.81 422.48 1193.26 440.55 1179.7 478.2 1114.92 536.5 1023.39 614.61 914.97 704.25 814.96 799.57 733.6 887.39 662.28 953.49 610.31 987.57 572.21 980.3 538.98 934.61 511.13 854.01 485.31 752.98 459.49 656.17 436.92 581.85 421.46 542.13 410.87 542.71 415.87 578.04 442.44 636.79 479.06 711.93 536.55 784.24 605.18 841.95 656.91 883.76 684.62 899.72 664.35 891.4 588.06 863.23 461.84 818.2 314.14 763.77 197.03 700.77 149.38 637.34 199.73 578.3 323.78 518.36 471.15 465.74 563.5 421.93 542 378.53 412.05 343.53 239.19 317.71 123.21 291.89 132.43 276.47 253.67 271.18 478.98 290.51 207.71 364.17 259.87 362.48 364.15 336.96 484.5 290.39 594.12 221.7 688.64 137.11 752.63 41.66 791.1 -52.41 815.66 -155.1 839.51 -126.39 871.85 4.94 897.67 105.98 935.06 191.82 979.53 247.49 1019.61 264.73 1057.55 245.35 1082.26 198.18 1088.53 129.29 1067.06 57.12 1012.33 -5.62 942.51 -56.86 859.23 -84.55 788.78 -88.36 766.34 -72.59 805.2 -38.1 912.53 8.22 1058.16 64.67 1200.6 123.98 1280.24 180.83 1260.52 239.7 1145.04 292.28 986.47 336.46 875.19 380.55 871.21 416.04 987.19 441.86Q987.19 441.86 987.19 441.86" opacity="0.51"></path><path d="M952.5 309.19C1172.03 339.82 1143.13 360.44 931.73 357.3 820.34 357.87 778.44 359.07 805.48 365.22 887.44 381.67 986.55 409.25 1070.69 451.32 1129.39 507.08 1144.27 577.43 1121.55 658.98 1068.94 742.82 999.41 824.3 927.58 892.72 850.07 938.52 782.86 954.83 729.95 936.23 677.97 887.37 639.95 811.09 616.48 718.87 593 630.15 585.2 558.76 592.91 514.56 601.55 502.87 626.06 521.14 662.9 562.27 694.04 622.41 724.93 686.95 741.36 745.88 727.9 798.41 679.32 833.36 589.86 849.21 474.96 849.93 348.01 833.63 241.61 804.98 190.14 766.48 210.98 722.38 305.17 677.47 433.4 629.25 551.97 584.38 604.54 545.54 558.92 506.22 429.89 474.12 272.5 450.65 162.87 427.18 155.45 413.45 246.68 408.5 394.76 403.07 535.58 405.24 617.48 412.78 618.51 417.02 549.1 422.46 445.8 424.78 337.61 417.26 266.06 399.86 245.2 368.37 272.44 321.76 339.52 258.99 425.75 182.02 524.87 98.64 615.95 13.06 690.93 -64.28 758.32 -122.62 808.92 -154.25 846.57 -151.62 880.38 -116.47 907.81 -49.84 931.28 38.87 954.76 131.09 973.16 212.13 983.61 270.05 990.23 297.71 982.33 294.75 955.61 266.16 921.31 214.95 868.89 154.51 805.94 95.12 755.89 38 722.5 -4.51 726.04 -29.5 777.65 -40.81 877.03 -34.69 1009.67 -14.96 1137.4 15.06 1227.87 52.51 1244.04 92.61 1179.35 136.69 1051.89 178.88 912.87 216.18 830.69 254.2 842.87 285.72 952.5 309.19Q952.5 309.19 952.5 309.19" opacity="0.73"></path><path d="M919.25 208.07C1060.97 229.2 1180.81 245.4 1235.32 257.68 1210.47 271.01 1115.87 282.47 987.84 294.37 861.34 310.41 772.99 330.72 737.81 358.12 756.75 393.42 814.7 438.96 888.6 495.46 969.22 559.06 1031.61 630.76 1068.12 706.11 1084.16 777.21 1075.39 840.73 1050.33 888.65 1013.2 915.44 971.68 916.61 933.21 889.45 892.29 839.37 859.77 768.27 838.65 684.99 817.52 604.55 808.8 537.09 809.87 490.36 808.5 468.95 811.59 472.19 812.11 496.09 800.57 538.98 774.54 590.54 725.95 642.98 656.88 696.3 564.16 739.89 455.85 770.62 312.77 796.01 278.22 771 423.94 734.08 536.48 703.93 619.06 672.92 635.76 643.78 573.09 613.72 448.97 587.41 307.25 566.29 204.23 545.16 182.34 530.22 244.06 520.45 364.86 509.74 500.89 502.32 608.67 495.87 662.58 485.45 653.16 472.12 595.27 452.71 504.47 424.99 413.85 387.24 345.15 337.88 302.37 279.46 296.95 210.82 321.76 135.51 370.59 61.06 432.58 -9.43 496.1 -67.81 564.88 -107.19 625.14 -122.45 673.05 -109.2 720.61 -70.62 755.46 -7.44 776.58 72.99 797.71 156.27 804.12 231.65 796.41 289.89 788.34 325.2 766.51 336.05 734.35 324.74 707.43 292.3 680.22 247.73 663.95 198.62 671.67 145.27 707.41 98.62 777.87 62.71 874.25 33.9 989.92 18.68 1102.72 15.94 1182.62 21.1 1211 35.58 1172.6 56.15 1080.32 80.86 956.32 107.82 843.66 134.34 790.07 161.9 816.2 186.94 919.19 208.06Q919.25 208.07 919.25 208.07" opacity="0.32"></path><path d="M885.24 173.12C1011.03 191.9 1123.71 210.61 1190.32 229.74 1197.1 249.77 1142.21 271.92 1045.48 297.53 928.77 326.17 821.31 360.63 742.91 401.96 701.15 447.69 698.62 500.96 725.49 560.68 776.81 621.87 834.7 685.55 887.17 747.34 937.55 801.32 971.92 845.16 989.83 873.37 1000.25 883.55 997.97 872.69 987.12 839.81 973.61 790.33 956.4 725.2 937.62 650.95 918.84 578.96 899.39 516.37 877.49 469.05 852.92 440.63 821.04 431.5 778.08 439.77 727.62 465.1 662.33 500.74 583.01 541.19 501.6 587.05 416.75 629.47 340.83 664.92 289.34 697.01 269.6 719.05 291.81 731.04 350.66 737.78 441.28 735.89 544.23 727.27 627.2 715.42 671.4 699.51 657.37 681.46 583.52 662.5 467.03 643.14 341.24 624.36 246.25 605.59 213.89 588.28 249.3 571.83 339.58 554.46 457.78 536.21 571.57 515.52 658.87 491.6 701.59 462.56 699.35 426.88 656.62 385.95 591.08 336.95 520.84 280.25 450.31 220.19 398.1 155.51 368.29 90.1 355.08 30.1 361.9 -22.38 382.02 -61.47 411.81 -83.5 445.7 -85.07 477.7 -63.89 511.85 -23.81 539.61 34.96 558.39 106.95 577.18 181.2 586.08 250.14 587.35 306.86 590.9 357.76 618.24 344.17 672.43 296.24 731.18 254 810.33 212.59 905.48 176.01 1000.33 140.9 1088.14 114.59 1150.43 97.79 1172.24 85.41 1146.38 81.87 1072.86 85.77 972.83 92.7 865.32 104.71 782.27 120.09 754.08 136.38 790.22 154.33 885.18 173.11Q885.24 173.12 885.24 173.12" opacity="0.08"></path><path d="M851.18 216.54C1067.71 249.4 1168.74 297.54 1089.88 362.05 899.38 432.37 728.75 525.02 652.66 631.43 669.69 728.94 733.73 810.52 784.75 846.12 838.25 826.27 849.37 743.55 816.51 616.94 783.65 497.14 709.92 418.26 599.47 394.74 491.5 426.1 376.18 486.18 316.08 546.46 416.99 628.35 648.88 647.1 375.18 604.97 247.89 572.11 324.62 528.03 516.86 469.96 691.49 404.65 744.48 316.3 695.43 209.87 583.6 106.53 492.64 11.59 454.31 -43.84 437.58 -44.41 455.49 21.14 488.35 140.94 521.21 267.55 565.92 363.59 639.59 407.52 734.87 396.01 877.12 349.29 1032.01 294.85 1124.14 231.5 1105.99 190.14 955.45 176.77 787.31 169.21 723.89 183.68 851.18 216.54Q851.18 216.54 851.18 216.54" opacity="0.48"></path><path d="M817.25 323.3C1005.13 351.46 1122.57 400.04 1108.9 465.02 985.54 530.46 823.05 609.94 694.89 691.11 615.61 757.01 593.56 801.82 595.52 806.71 616.39 772.11 621.18 692.69 593.02 582.99 564.85 478.3 506.4 400.53 436.71 361.78 385.93 363.88 364.03 393.36 406.39 431.81 612.75 523.41 303.24 463.1 458.08 376.48 631.97 311.54 752.16 230.36 792.52 143.31 764.06 67.95 706.9 8.59 663.71 -14.14 617.41 3.94 606.32 70.3 634.48 174.99 662.63 284.69 727.38 375.52 822.49 430.77 914.49 446.53 1015.62 431.59 1081.01 402.6 1077.59 358.35 987.29 322.83 834.06 306.2 714.73 290.03 696.33 295.12 817.19 323.29Q817.25 323.3 817.25 323.3" opacity="0.44"></path><path d="M783.25 456.56C940.68 480.03 1060.04 520.52 1094.62 572.24 1045.68 621.55 937.13 676.19 818.53 725.06 702.64 759.1 619.8 772.62 569.06 755.56 532.38 713.44 507.47 641.2 484 548.99 460.53 460.27 440.72 387.88 436.72 340.96 446.78 321.21 492.99 323.21 578.12 336.89 665.95 363.83 749.61 387.41 781.34 398.9 729.55 411.92 600.68 408.39 443.25 384.92 333.2 361.45 326.57 320.26 409.65 266.56 545.97 214.39 680.26 154.18 774.94 96.47 830.33 52.03 846.07 25.13 846.23 27.68 832.77 57.39 831.4 120.27 854.88 208.99 878.33 301.2 924.42 382.95 978.55 442.27 1019.08 476.54 1039.98 487.91 1015.37 484.64 951.46 466.53 842.08 448.52 722.96 439.89 657.07 428.85 673.18 433.08 783.19 456.55Q783.25 456.56 783.25 456.56" opacity="0.56"></path><path d="M749.19 570.27C874.99 589.05 983.4 616.58 1044.31 648.21 1055.68 677 1015.88 704.37 948.62 723.09 861.92 731.28 779.79 722.89 716.54 693.73 655.34 650.94 614.2 589.23 595.43 514.98 576.65 442.98 582 379.79 610.66 331.69 641.37 299.27 694.2 281.47 756.29 274.1 798.94 277.04 818.82 281.8 793.69 282.32 719.01 285.33 602.99 279.06 477.19 260.28 382.23 241.5 351.82 211.99 384.21 176.44 464.59 143.38 567.5 109.31 663.92 81.76 753.59 64.52 818.56 62.41 860.48 81.07 893.63 115.4 916.81 170.98 935.59 242.98 954.37 317.23 966.97 386.55 966.36 443.1 956.98 486.02 921.32 514.33 856.26 530.76 784.45 536.64 701.45 538.58 634.84 542.33 616.21 543.24 654.23 551.5 749.19 570.27Q749.19 570.27 749.19 570.27" opacity="0.29"></path><path d="M715.25 625.2C903.13 653.36 1011.55 680.03 1006.86 681.36 933.97 660.94 847.16 590.69 819 480.99 790.83 376.29 826.64 295.47 862.61 250.24 830.39 228.06 699.13 212.07 511.25 183.91 390.34 155.74 421.28 120.72 527.9 105.98 668.35 114.31 770.07 172.29 798.24 276.99 826.4 386.69 775.68 479.77 672.15 537.11 602.45 572.7 594.34 597.03 715.25 625.2Q715.25 625.2 715.25 625.2" opacity="0.80"></path><path d="M681.19 602.32C923.96 639.88 975.32 589.73 937.77 446.98 900.21 312.98 787.96 219.71 545.19 182.15 416.01 144.6 538.69 176.98 576.25 310.98 613.8 453.73 552.01 564.77 681.19 602.32Q681.19 602.32 681.19 602.32" opacity="0.20"></path></g></svg>