<svg xmlns="http://www.w3.org/2000/svg" version="1.1" xmlns:xlink="http://www.w3.org/1999/xlink" viewBox="0 0 700 700" style="overflow: hidden; display: block;" width="700" height="700"><defs><linearGradient id="two-3" x1="350" y1="-350" x2="350" y2="350" spreadMethod="pad" gradientUnits="userSpaceOnUse"><stop offset="0%" stop-color="hsl(184, 74%, 44%)" stop-opacity="1"></stop><stop offset="100%" stop-color="hsl(332, 87%, 70%)" stop-opacity="1"></stop></linearGradient></defs><g id="two-0" transform="matrix(1 0 0 1 0 0)" opacity="1"><path transform="matrix(1 0 0 1 350 350)" id="two-7" d="M 193.434584 56.797518 C 176.765334 68.8579 150.157344 72.20489 141.094912 90.676194 C 129.435286 114.441173 167.412 152.793101 147.832907 170.60827 C 128.936108 187.802616 97.00475 153.803421 71.641023 156.871958 C 55.095681 158.873636 37.818004 166.18945 25.510069 177.426433 C -8.765772 208.719828 2.028294 310.76692 -43.157576 300.167534 C -102.868559 286.160948 3.612109 139.728359 -52.308253 114.539095 C -111.373643 87.933156 -140.80269 235.3085 -205.555514 237.223708 C -237.01261 238.154122 -280.501772 213.464956 -283.395856 182.127457 C -289.248376 118.755637 -143.07177 107.125505 -149.051967 43.765606 C -151.414499 18.73469 -194.134014 18.261175 -211.415731 0 C -231.71218 -21.44677 -265.252161 -47.169473 -258.70442 -75.962472 C -252.5811 -102.889124 -205.273571 -99.258879 -188.109286 -120.890498 C -173.224915 -139.64881 -186.855579 -181.957934 -164.082647 -189.361469 C -120.829317 -203.423229 -95.67556 -104.265797 -50.696738 -111.010372 C -35.222996 -113.33066 -33.949566 -138.996382 -21.310891 -148.2205 C -8.486951 -157.579831 10.832734 -155.858288 23.738448 -165.104535 C 73.2168 -200.553105 84.323659 -331.064346 140.577246 -307.821234 C 190.876703 -287.038276 135.049869 -197.077712 124.504006 -143.685284 C 119.232206 -116.994798 83.440547 -85.739354 100.740002 -64.741669 C 139.074412 -18.212237 242.533889 -128.074714 282.517562 -82.954642 C 301.123478 -61.958565 278.749174 -23.820575 263.930416 -0.000001 C 248.149759 25.366788 217.638644 39.285621 193.434584 56.797518 Z " fill="url(#two-3)" stroke="undefined" stroke-width="1" stroke-opacity="1" fill-opacity="1" visibility="visible" stroke-linecap="butt" stroke-linejoin="miter" stroke-miterlimit="4"></path></g></svg>