<svg width="166.5187255859375px" height="180.22501220703126px" xmlns="http://www.w3.org/2000/svg" viewBox="166.74063720703126 -15.112506103515628 166.5187255859375 180.22501220703126" style="background: rgba(0, 0, 0, 0);" preserveAspectRatio="xMidYMid"><defs><filter id="editing-hole" x="-100%" y="-100%" width="300%" height="300%"><feFlood flood-color="#000000" result="black"></feFlood><feMorphology operator="dilate" radius="2" in="SourceGraphic" result="erode"></feMorphology><feGaussianBlur in="erode" stdDeviation="4" result="blur"></feGaussianBlur><feOffset in="blur" dx="2" dy="2" result="offset"></feOffset><feComposite operator="atop" in="offset" in2="black" result="merge"></feComposite><feComposite operator="in" in="merge" in2="SourceGraphic" result="inner-shadow"></feComposite></filter></defs><g filter="url(#editing-hole)"><g transform="translate(199.14656189084053, 99.01500129699707)"><path d="M3.67-4.70L3.67-4.70L3.67-4.70Q3.67-1.88 6.77-1.88L6.77-1.88L6.77-1.88Q9.87-1.88 14.76-5.17L14.76-5.17L14.76-5.17Q19.65-8.46 24.25-14.10L24.25-14.10L24.25-14.10Q25.38-15.60 26.04-15.60L26.04-15.60L26.04-15.60Q26.70-15.60 26.70-15.04L26.70-15.04L26.70-15.04Q26.70-14.48 22.84-10.15L22.84-10.15L22.84-10.15Q13.44 0.19 7.14 0.19L7.14 0.19L7.14 0.19Q4.04 0.19 1.88-1.27L1.88-1.27L1.88-1.27Q-0.28-2.73-0.28-5.78L-0.28-5.78L-0.28-5.78Q-0.28-8.84 1.32-12.88L1.32-12.88L1.32-12.88Q4.04-19.27 10.06-28.95L10.06-28.95L10.06-28.95Q21.06-46.81 25.66-46.81L25.66-46.81L25.66-46.81Q26.60-46.81 27.59-46.11L27.59-46.11L27.59-46.11Q28.58-45.40 28.67-44.56L28.67-44.56L28.67-44.56Q26.51-41.64 20.35-33.37L20.35-33.37L20.35-33.37Q14.19-25.10 11.84-21.48L11.84-21.48L11.84-21.48Q9.49-17.86 8.32-16.07L8.32-16.07L8.32-16.07Q7.14-14.29 6.58-13.30L6.58-13.30L6.58-13.30Q6.02-12.31 5.26-10.72L5.26-10.72L5.26-10.72Q3.67-7.52 3.67-4.70ZM47.38-19.93L47.38-19.93L47.38-19.93Q47.38-16.64 41.08-8.93L41.08-8.93L41.08-8.93Q33.65 0.19 28.39 0.19L28.39 0.19L26.88 0.19L26.88 0.19Q24.44 0.19 23.03-2.35L23.03-2.35L23.03-2.35Q21.90-4.14 21.90-6.30L21.90-6.30L21.90-6.30Q21.90-11.94 30.13-22.14L30.13-22.14L30.13-22.14Q38.35-32.34 43.43-32.34L43.43-32.34L43.43-32.34Q48.22-32.34 48.22-27.26L48.22-27.26L48.22-27.26Q48.22-25.94 47.75-23.88L47.75-23.88L47.75-23.88Q47.85-23.59 49.54-23.59L49.54-23.59L49.54-23.59Q51.23-23.59 54.71-25.38L54.71-25.38L54.71-25.38Q54.61-23.78 47.28-20.77L47.28-20.77L47.28-20.77Q47.38-20.40 47.38-19.93ZM41.27-24.82L41.27-24.82L41.27-24.82Q38.07-24.82 32.20-17.30L32.20-17.30L32.20-17.30Q26.32-9.78 26.32-6.20L26.32-6.20L26.32-6.20Q26.32-2.63 28.58-2.63L28.58-2.63L28.58-2.63Q32.62-2.63 38.82-9.96L38.82-9.96L38.82-9.96Q45.03-17.30 45.03-20.49L45.03-20.49L45.03-20.49Q43.52-21.34 41.27-24.82ZM74.73-36.94L74.73-36.94L74.73-36.94Q77.55-36.94 79.52-35.06L79.52-35.06L79.52-35.06Q81.50-33.18 81.50-29.80L81.50-29.80L81.50-29.80Q81.50-22.37 69.18-11.19L69.18-11.19L69.18-11.19Q58.75-1.79 52.36 0.28L52.36 0.28L52.36 0.28Q51.32 0.28 49.63-0.85L49.63-0.85L49.63-0.85Q47.94-1.97 47.94-2.91L47.94-2.91L47.94-2.91Q47.94-4.98 52.45-16.92L52.45-16.92L52.45-16.92Q56.96-28.86 58.66-30.27L58.66-30.27L58.66-30.27Q59.03-30.64 59.88-30.64L59.88-30.64L59.88-30.64Q60.72-30.64 61.66-29.75L61.66-29.75L61.66-29.75Q62.60-28.86 62.70-27.64L62.70-27.64L62.70-27.64Q62.70-27.54 58.05-16.73L58.05-16.73L58.05-16.73Q53.39-5.92 53.67-3.85L53.67-3.85L53.67-3.85Q57.72-5.08 68.10-13.72L68.10-13.72L68.10-13.72Q78.49-22.37 78.49-29.23L78.49-29.23L78.49-29.23Q78.49-33.37 74.35-35.25L74.35-35.25L74.35-35.25Q73.70-35.53 73.70-36.10L73.70-36.10L73.70-36.10Q73.70-36.94 74.73-36.94ZM82.34 1.22L82.34 1.22L82.34 1.22Q81.31 1.22 80.46 0.94L80.46 0.94L80.46 0.94Q74.45-0.75 74.45-5.83L74.45-5.83L74.45-5.83Q74.45-12.41 82.72-21.06L82.72-21.06L82.72-21.06Q90.99-29.70 97.57-29.70L97.57-29.70L97.57-29.70Q99.73-29.70 101.10-28.53L101.10-28.53L101.10-28.53Q102.46-27.35 102.46-25.66L102.46-25.66L102.46-25.66Q102.46-20.40 94.52-15.60L94.52-15.60L94.52-15.60Q86.57-10.81 81.59-10.81L81.59-10.81L81.59-10.81Q80.84-10.81 80.28-11.00L80.28-11.00L80.28-11.00Q78.87-8.46 78.87-5.64L78.87-5.64L78.87-5.64Q78.87-0.75 83.52-0.75L83.52-0.75L83.52-0.75Q88.17-0.75 95.60-7.05L95.60-7.05L95.60-7.05Q101.33-11.66 105.37-16.83L105.37-16.83L105.37-16.83Q106.22-17.95 106.83-17.95L106.83-17.95L106.83-17.95Q107.44-17.95 107.44-17.39L107.44-17.39L107.44-17.39Q107.44-16.83 106.69-15.79L106.69-15.79L106.69-15.79Q101.61-9.12 94.47-3.95L94.47-3.95L94.47-3.95Q87.33 1.22 82.34 1.22ZM100.11-25.85L100.11-25.85L100.11-25.85Q100.11-26.98 97.71-26.98L97.71-26.98L97.71-26.98Q95.32-26.98 90.90-23.31L90.90-23.31L90.90-23.31Q84.98-18.42 81.69-13.07L81.69-13.07L81.69-13.07Q82.25-12.88 82.91-12.88L82.91-12.88L82.91-12.88Q86.48-12.88 92.45-16.68L92.45-16.68L92.45-16.68Q98.42-20.49 99.92-25.00L99.92-25.00L99.92-25.00Q100.11-25.47 100.11-25.85Z" fill="#733044"></path></g></g><style>text {
  font-size: 64px;
  font-family: Arial Black;
  dominant-baseline: central;
  text-anchor: middle;
}</style></svg>